<svg xmlns="http://www.w3.org/2000/svg" width="451" height="520" viewBox="0 0 451 520"><path fill="#C6FF00" d="M10 9h1v1h-1zM28 9h18v1h-18zM54 9h27v1h-27zM89 9h10v1h-10zM107 9h167v1h-167zM9 10h299v1h-299zM9 11h305v1h-305zM9 12h312v1h-312zM9 13h316v1h-316zM9 14h320v1h-320zM9 15h324v1h-324zM9 16h326v1h-326zM9 17h330v1h-330zM9 18h332v1h-332zM9 19h333v1h-333zM9 20h336v1h-336zM9 21h338v1h-338zM9 22h340v1h-340zM9 23h342v1h-342zM9 24h345v1h-345zM9 25h347v1h-347zM9 26h348v1h-348zM9 27h350v1h-350zM9 28h352v1h-352zM9 29h353v1h-353zM9 30h354v1h-354zM9 31h356v1h-356zM9 32h357v1h-357zM9 33h359v1h-359zM9 34h360v1h-360zM9 35h362v1h-362zM9 36h363v1h-363zM9 37h364v1h-364zM9 38h365v1h-365zM9 39h367v1h-367zM9 40h368v1h-368zM9 41h369v1h-369zM9 42h370v1h-370zM9 43h371v1h-371zM9 44h372v1h-372zM9 45h373v1h-373zM9 46h374v1h-374zM9 47h375v1h-375zM9 48h376v1h-376zM9 49h377v1h-377zM9 50h378v1h-378zM9 51h379v1h-379zM9 52h380v1h-380zM9 53h381v1h-381zM9 54h382v1h-382zM9 55h382v1h-382zM9 56h383v1h-383zM9 57h384v1h-384zM9 58h385v1h-385zM9 59h386v1h-386zM9 60h386v1h-386zM9 61h387v1h-387zM9 62h388v1h-388zM9 63h388v1h-388zM9 64h389v1h-389zM9 65h390v1h-390zM9 66h391v1h-391zM9 67h391v1h-391zM9 68h392v1h-392zM9 69h393v1h-393zM9 70h393v1h-393zM9 71h394v1h-394zM9 72h395v1h-395zM9 73h395v1h-395zM9 74h396v1h-396zM9 75h396v1h-396zM9 76h397v1h-397zM9 77h397v1h-397zM9 78h397v1h-397zM9 79h398v1h-398zM9 80h398v1h-398zM9 81h399v1h-399zM9 82h399v1h-399zM9 83h400v1h-400zM9 84h84v1h-84zM107 84h18v1h-18zM177 84h18v1h-18zM221 84h9v1h-9zM294 84h116v1h-116zM9 85h84v1h-84zM108 85h16v1h-16zM178 85h16v1h-16zM222 85h7v1h-7zM295 85h115v1h-115zM9 86h75v1h-75zM304 86h107v1h-107zM9 87h75v1h-75zM307 87h104v1h-104zM9 88h75v1h-75zM311 88h100v1h-100zM9 89h75v1h-75zM313 89h99v1h-99zM9 90h75v1h-75zM315 90h97v1h-97zM9 91h75v1h-75zM317 91h96v1h-96zM9 92h75v1h-75zM320 92h93v1h-93zM9 93h75v1h-75zM321 93h92v1h-92zM9 94h75v1h-75zM323 94h91v1h-91zM9 95h75v1h-75zM324 95h90v1h-90zM9 96h75v1h-75zM326 96h88v1h-88zM9 97h75v1h-75zM326 97h89v1h-89zM9 98h75v1h-75zM326 98h89v1h-89zM9 99h75v1h-75zM328 99h87v1h-87zM9 100h75v1h-75zM328 100h87v1h-87zM9 101h75v1h-75zM329 101h87v1h-87zM9 102h75v1h-75zM331 102h85v1h-85zM9 103h75v1h-75zM332 103h84v1h-84zM9 104h75v1h-75zM333 104h83v1h-83zM9 105h75v1h-75zM334 105h83v1h-83zM9 106h75v1h-75zM334 106h83v1h-83zM9 107h75v1h-75zM335 107h82v1h-82zM9 108h75v1h-75zM336 108h81v1h-81zM9 109h75v1h-75zM336 109h82v1h-82zM9 110h75v1h-75zM337 110h81v1h-81zM9 111h75v1h-75zM337 111h81v1h-81zM9 112h75v1h-75zM338 112h80v1h-80zM9 113h75v1h-75zM338 113h80v1h-80zM9 114h74v1h-74zM339 114h79v1h-79zM9 115h74v1h-74zM339 115h80v1h-80zM9 116h74v1h-74zM340 116h79v1h-79zM9 117h74v1h-74zM340 117h79v1h-79zM9 118h74v1h-74zM340 118h79v1h-79zM9 119h74v1h-74zM341 119h78v1h-78zM9 120h74v1h-74zM341 120h79v1h-79zM9 121h74v1h-74zM341 121h79v1h-79zM9 122h75v1h-75zM342 122h78v1h-78zM9 123h75v1h-75zM343 123h77v1h-77zM9 124h75v1h-75zM343 124h77v1h-77zM9 125h75v1h-75zM343 125h77v1h-77zM9 126h75v1h-75zM344 126h76v1h-76zM9 127h75v1h-75zM344 127h76v1h-76zM9 128h75v1h-75zM344 128h76v1h-76zM9 129h75v1h-75zM344 129h76v1h-76zM9 130h75v1h-75zM344 130h76v1h-76zM9 131h75v1h-75zM345 131h76v1h-76zM9 132h75v1h-75zM345 132h77v1h-77zM9 133h75v1h-75zM345 133h77v1h-77zM9 134h75v1h-75zM345 134h77v1h-77zM9 135h75v1h-75zM345 135h77v1h-77zM9 136h75v1h-75zM345 136h77v1h-77zM9 137h75v1h-75zM346 137h76v1h-76zM9 138h75v1h-75zM346 138h76v1h-76zM9 139h75v1h-75zM346 139h76v1h-76zM9 140h75v1h-75zM346 140h76v1h-76zM9 141h75v1h-75zM346 141h76v1h-76zM9 142h75v1h-75zM346 142h76v1h-76zM9 143h75v1h-75zM346 143h76v1h-76zM9 144h75v1h-75zM346 144h76v1h-76zM9 145h75v1h-75zM346 145h76v1h-76zM9 146h75v1h-75zM346 146h76v1h-76zM9 147h75v1h-75zM346 147h76v1h-76zM9 148h75v1h-75zM346 148h76v1h-76zM9 149h75v1h-75zM346 149h76v1h-76zM9 150h75v1h-75zM346 150h76v1h-76zM9 151h75v1h-75zM346 151h76v1h-76zM9 152h75v1h-75zM346 152h76v1h-76zM9 153h75v1h-75zM346 153h76v1h-76zM9 154h75v1h-75zM346 154h76v1h-76zM9 155h75v1h-75zM346 155h76v1h-76zM9 156h75v1h-75zM345 156h77v1h-77zM9 157h75v1h-75zM345 157h77v1h-77zM9 158h75v1h-75zM345 158h77v1h-77zM9 159h75v1h-75zM345 159h77v1h-77zM9 160h75v1h-75zM345 160h77v1h-77zM9 161h75v1h-75zM345 161h77v1h-77zM9 162h75v1h-75zM345 162h76v1h-76zM9 163h75v1h-75zM344 163h76v1h-76zM9 164h75v1h-75zM344 164h76v1h-76zM9 165h75v1h-75zM344 165h76v1h-76zM9 166h75v1h-75zM344 166h76v1h-76zM9 167h75v1h-75zM344 167h76v1h-76zM9 168h75v1h-75zM343 168h77v1h-77zM9 169h75v1h-75zM343 169h77v1h-77zM9 170h75v1h-75zM343 170h77v1h-77zM9 171h75v1h-75zM342 171h78v1h-78zM9 172h75v1h-75zM341 172h78v1h-78zM9 173h75v1h-75zM341 173h78v1h-78zM9 174h75v1h-75zM341 174h78v1h-78zM9 175h75v1h-75zM340 175h79v1h-79zM9 176h75v1h-75zM340 176h79v1h-79zM9 177h75v1h-75zM339 177h80v1h-80zM9 178h75v1h-75zM339 178h79v1h-79zM9 179h75v1h-75zM339 179h79v1h-79zM9 180h75v1h-75zM338 180h80v1h-80zM9 181h75v1h-75zM338 181h80v1h-80zM9 182h75v1h-75zM337 182h81v1h-81zM9 183h75v1h-75zM337 183h80v1h-80zM9 184h75v1h-75zM336 184h81v1h-81zM9 185h75v1h-75zM336 185h81v1h-81zM9 186h75v1h-75zM335 186h82v1h-82zM9 187h75v1h-75zM334 187h82v1h-82zM9 188h75v1h-75zM334 188h82v1h-82zM9 189h75v1h-75zM333 189h83v1h-83zM9 190h75v1h-75zM332 190h84v1h-84zM9 191h75v1h-75zM331 191h85v1h-85zM9 192h75v1h-75zM330 192h85v1h-85zM9 193h75v1h-75zM329 193h86v1h-86zM9 194h75v1h-75zM328 194h87v1h-87zM9 195h75v1h-75zM328 195h86v1h-86zM9 196h75v1h-75zM327 196h87v1h-87zM9 197h75v1h-75zM326 197h88v1h-88zM9 198h75v1h-75zM324 198h89v1h-89zM9 199h75v1h-75zM323 199h90v1h-90zM9 200h75v1h-75zM322 200h91v1h-91zM9 201h75v1h-75zM321 201h91v1h-91zM9 202h75v1h-75zM319 202h93v1h-93zM9 203h75v1h-75zM318 203h93v1h-93zM9 204h75v1h-75zM317 204h94v1h-94zM9 205h75v1h-75zM315 205h95v1h-95zM9 206h75v1h-75zM314 206h96v1h-96zM9 207h75v1h-75zM312 207h98v1h-98zM9 208h75v1h-75zM310 208h100v1h-100zM9 209h75v1h-75zM308 209h101v1h-101zM9 210h75v1h-75zM304 210h104v1h-104zM9 211h75v1h-75zM301 211h107v1h-107zM9 212h75v1h-75zM297 212h110v1h-110zM9 213h75v1h-75zM291 213h116v1h-116zM9 214h75v1h-75zM274 214h132v1h-132zM9 215h75v1h-75zM273 215h133v1h-133zM9 216h75v1h-75zM112 216h293v1h-293zM9 217h75v1h-75zM112 217h293v1h-293zM9 218h75v1h-75zM113 218h291v1h-291zM9 219h75v1h-75zM114 219h290v1h-290zM9 220h75v1h-75zM115 220h288v1h-288zM9 221h75v1h-75zM116 221h286v1h-286zM9 222h75v1h-75zM117 222h285v1h-285zM9 223h75v1h-75zM118 223h283v1h-283zM9 224h75v1h-75zM119 224h282v1h-282zM9 225h75v1h-75zM120 225h280v1h-280zM9 226h75v1h-75zM121 226h278v1h-278zM9 227h75v1h-75zM122 227h277v1h-277zM9 228h75v1h-75zM123 228h275v1h-275zM9 229h75v1h-75zM124 229h273v1h-273zM9 230h75v1h-75zM125 230h271v1h-271zM9 231h75v1h-75zM126 231h270v1h-270zM9 232h76v1h-76zM127 232h268v1h-268zM9 233h77v1h-77zM128 233h266v1h-266zM9 234h79v1h-79zM129 234h264v1h-264zM9 235h80v1h-80zM130 235h263v1h-263zM9 236h81v1h-81zM131 236h262v1h-262zM9 237h81v1h-81zM132 237h260v1h-260zM9 238h82v1h-82zM133 238h258v1h-258zM9 239h83v1h-83zM134 239h256v1h-256zM9 240h84v1h-84zM135 240h254v1h-254zM9 241h85v1h-85zM136 241h252v1h-252zM9 242h86v1h-86zM137 242h250v1h-250zM9 243h87v1h-87zM138 243h249v1h-249zM9 244h88v1h-88zM139 244h247v1h-247zM9 245h90v1h-90zM140 245h245v1h-245zM9 246h91v1h-91zM141 246h243v1h-243zM9 247h92v1h-92zM142 247h243v1h-243zM9 248h92v1h-92zM143 248h243v1h-243zM9 249h93v1h-93zM144 249h244v1h-244zM9 250h94v1h-94zM145 250h244v1h-244zM9 251h95v1h-95zM146 251h244v1h-244zM9 252h96v1h-96zM147 252h244v1h-244zM9 253h97v1h-97zM148 253h244v1h-244zM9 254h98v1h-98zM149 254h244v1h-244zM9 255h99v1h-99zM150 255h245v1h-245zM9 256h100v1h-100zM151 256h245v1h-245zM9 257h102v1h-102zM152 257h245v1h-245zM9 258h103v1h-103zM153 258h245v1h-245zM9 259h104v1h-104zM154 259h245v1h-245zM9 260h104v1h-104zM155 260h245v1h-245zM9 261h105v1h-105zM156 261h245v1h-245zM9 262h106v1h-106zM157 262h245v1h-245zM9 263h107v1h-107zM158 263h245v1h-245zM9 264h108v1h-108zM159 264h245v1h-245zM9 265h109v1h-109zM160 265h245v1h-245zM9 266h110v1h-110zM161 266h245v1h-245zM9 267h111v1h-111zM162 267h245v1h-245zM9 268h112v1h-112zM163 268h245v1h-245zM9 269h114v1h-114zM164 269h244v1h-244zM9 270h115v1h-115zM165 270h244v1h-244zM9 271h115v1h-115zM166 271h244v1h-244zM9 272h116v1h-116zM167 272h244v1h-244zM9 273h117v1h-117zM168 273h244v1h-244zM9 274h117v1h-117zM169 274h244v1h-244zM9 275h119v1h-119zM170 275h243v1h-243zM9 276h120v1h-120zM171 276h243v1h-243zM9 277h121v1h-121zM172 277h243v1h-243zM9 278h122v1h-122zM173 278h243v1h-243zM9 279h123v1h-123zM174 279h242v1h-242zM9 280h125v1h-125zM175 280h242v1h-242zM9 281h126v1h-126zM175 281h243v1h-243zM9 282h127v1h-127zM176 282h242v1h-242zM9 283h127v1h-127zM177 283h242v1h-242zM9 284h128v1h-128zM177 284h243v1h-243zM9 285h129v1h-129zM180 285h240v1h-240zM9 286h130v1h-130zM181 286h240v1h-240zM9 287h131v1h-131zM182 287h240v1h-240zM9 288h132v1h-132zM183 288h240v1h-240zM9 289h133v1h-133zM184 289h239v1h-239zM9 290h133v1h-133zM184 290h240v1h-240zM9 291h135v1h-135zM185 291h239v1h-239zM9 292h136v1h-136zM187 292h238v1h-238zM9 293h136v1h-136zM187 293h238v1h-238zM9 294h138v1h-138zM188 294h238v1h-238zM9 295h139v1h-139zM188 295h238v1h-238zM9 296h139v1h-139zM191 296h236v1h-236zM9 297h75v1h-75zM310 297h117v1h-117zM9 298h75v1h-75zM316 298h111v1h-111zM9 299h75v1h-75zM320 299h108v1h-108zM9 300h75v1h-75zM323 300h105v1h-105zM9 301h75v1h-75zM326 301h103v1h-103zM9 302h75v1h-75zM329 302h100v1h-100zM9 303h75v1h-75zM331 303h99v1h-99zM9 304h75v1h-75zM333 304h97v1h-97zM9 305h75v1h-75zM334 305h97v1h-97zM9 306h75v1h-75zM336 306h95v1h-95zM9 307h74v1h-74zM337 307h94v1h-94zM9 308h74v1h-74zM339 308h93v1h-93zM9 309h74v1h-74zM340 309h93v1h-93zM9 310h74v1h-74zM341 310h92v1h-92zM9 311h74v1h-74zM344 311h90v1h-90zM9 312h74v1h-74zM345 312h89v1h-89zM9 313h74v1h-74zM346 313h88v1h-88zM9 314h74v1h-74zM347 314h88v1h-88zM9 315h75v1h-75zM348 315h87v1h-87zM9 316h75v1h-75zM349 316h86v1h-86zM9 317h75v1h-75zM350 317h85v1h-85zM9 318h75v1h-75zM351 318h85v1h-85zM9 319h75v1h-75zM351 319h85v1h-85zM9 320h75v1h-75zM352 320h84v1h-84zM9 321h75v1h-75zM352 321h85v1h-85zM9 322h75v1h-75zM353 322h84v1h-84zM9 323h75v1h-75zM355 323h82v1h-82zM9 324h75v1h-75zM356 324h81v1h-81zM9 325h75v1h-75zM356 325h82v1h-82zM9 326h75v1h-75zM357 326h81v1h-81zM9 327h75v1h-75zM357 327h81v1h-81zM9 328h75v1h-75zM357 328h81v1h-81zM9 329h75v1h-75zM358 329h81v1h-81zM9 330h75v1h-75zM358 330h81v1h-81zM9 331h75v1h-75zM359 331h80v1h-80zM9 332h75v1h-75zM359 332h80v1h-80zM9 333h75v1h-75zM360 333h79v1h-79zM9 334h75v1h-75zM360 334h79v1h-79zM9 335h75v1h-75zM361 335h79v1h-79zM9 336h75v1h-75zM361 336h79v1h-79zM9 337h75v1h-75zM362 337h78v1h-78zM9 338h75v1h-75zM362 338h78v1h-78zM9 339h75v1h-75zM363 339h77v1h-77zM9 340h75v1h-75zM363 340h77v1h-77zM9 341h75v1h-75zM363 341h78v1h-78zM9 342h75v1h-75zM363 342h78v1h-78zM9 343h75v1h-75zM363 343h78v1h-78zM9 344h75v1h-75zM364 344h77v1h-77zM9 345h75v1h-75zM364 345h77v1h-77zM9 346h75v1h-75zM364 346h77v1h-77zM9 347h75v1h-75zM364 347h77v1h-77zM9 348h75v1h-75zM365 348h76v1h-76zM9 349h75v1h-75zM365 349h76v1h-76zM9 350h75v1h-75zM365 350h77v1h-77zM9 351h75v1h-75zM365 351h77v1h-77zM9 352h75v1h-75zM365 352h77v1h-77zM9 353h75v1h-75zM365 353h77v1h-77zM9 354h75v1h-75zM366 354h76v1h-76zM9 355h75v1h-75zM367 355h75v1h-75zM9 356h75v1h-75zM367 356h75v1h-75zM9 357h75v1h-75zM367 357h75v1h-75zM9 358h75v1h-75zM367 358h75v1h-75zM9 359h75v1h-75zM367 359h75v1h-75zM9 360h75v1h-75zM367 360h75v1h-75zM9 361h75v1h-75zM367 361h75v1h-75zM9 362h75v1h-75zM367 362h75v1h-75zM9 363h75v1h-75zM367 363h75v1h-75zM9 364h75v1h-75zM367 364h75v1h-75zM9 365h75v1h-75zM367 365h75v1h-75zM9 366h75v1h-75zM367 366h75v1h-75zM9 367h75v1h-75zM367 367h75v1h-75zM9 368h75v1h-75zM367 368h75v1h-75zM9 369h75v1h-75zM367 369h75v1h-75zM9 370h75v1h-75zM367 370h75v1h-75zM9 371h75v1h-75zM367 371h75v1h-75zM9 372h75v1h-75zM367 372h75v1h-75zM9 373h75v1h-75zM367 373h75v1h-75zM9 374h75v1h-75zM367 374h75v1h-75zM9 375h75v1h-75zM367 375h75v1h-75zM9 376h75v1h-75zM367 376h75v1h-75zM9 377h75v1h-75zM366 377h76v1h-76zM9 378h75v1h-75zM365 378h77v1h-77zM9 379h75v1h-75zM365 379h77v1h-77zM9 380h75v1h-75zM365 380h77v1h-77zM9 381h75v1h-75zM365 381h77v1h-77zM9 382h75v1h-75zM365 382h76v1h-76zM9 383h75v1h-75zM365 383h76v1h-76zM9 384h75v1h-75zM365 384h76v1h-76zM9 385h75v1h-75zM365 385h76v1h-76zM9 386h74v1h-74zM364 386h77v1h-77zM9 387h74v1h-74zM364 387h77v1h-77zM9 388h74v1h-74zM364 388h77v1h-77zM9 389h74v1h-74zM363 389h78v1h-78zM9 390h74v1h-74zM363 390h78v1h-78zM9 391h74v1h-74zM363 391h77v1h-77zM9 392h74v1h-74zM362 392h78v1h-78zM9 393h74v1h-74zM362 393h78v1h-78zM9 394h74v1h-74zM362 394h78v1h-78zM9 395h74v1h-74zM361 395h79v1h-79zM9 396h74v1h-74zM361 396h79v1h-79zM9 397h74v1h-74zM360 397h80v1h-80zM9 398h74v1h-74zM360 398h79v1h-79zM9 399h74v1h-74zM359 399h80v1h-80zM9 400h74v1h-74zM359 400h80v1h-80zM9 401h74v1h-74zM359 401h80v1h-80zM9 402h74v1h-74zM358 402h81v1h-81zM9 403h74v1h-74zM358 403h80v1h-80zM9 404h74v1h-74zM357 404h81v1h-81zM9 405h74v1h-74zM357 405h81v1h-81zM9 406h74v1h-74zM356 406h82v1h-82zM9 407h74v1h-74zM355 407h82v1h-82zM9 408h74v1h-74zM355 408h82v1h-82zM9 409h74v1h-74zM354 409h83v1h-83zM9 410h74v1h-74zM353 410h84v1h-84zM9 411h75v1h-75zM352 411h84v1h-84zM9 412h75v1h-75zM351 412h85v1h-85zM9 413h75v1h-75zM350 413h86v1h-86zM9 414h75v1h-75zM349 414h87v1h-87zM9 415h75v1h-75zM348 415h87v1h-87zM9 416h75v1h-75zM348 416h87v1h-87zM9 417h75v1h-75zM346 417h88v1h-88zM9 418h75v1h-75zM345 418h89v1h-89zM9 419h75v1h-75zM344 419h90v1h-90zM9 420h75v1h-75zM343 420h90v1h-90zM9 421h75v1h-75zM342 421h91v1h-91zM9 422h75v1h-75zM341 422h92v1h-92zM9 423h75v1h-75zM340 423h92v1h-92zM9 424h75v1h-75zM338 424h93v1h-93zM9 425h75v1h-75zM336 425h95v1h-95zM9 426h75v1h-75zM335 426h95v1h-95zM9 427h75v1h-75zM333 427h97v1h-97zM9 428h75v1h-75zM331 428h98v1h-98zM9 429h75v1h-75zM328 429h101v1h-101zM9 430h75v1h-75zM326 430h103v1h-103zM9 431h75v1h-75zM323 431h105v1h-105zM9 432h74v1h-74zM320 432h108v1h-108zM9 433h75v1h-75zM315 433h113v1h-113zM9 434h75v1h-75zM308 434h119v1h-119zM9 435h76v1h-76zM307 435h120v1h-120zM9 436h417v1h-417zM9 437h417v1h-417zM9 438h416v1h-416zM9 439h415v1h-415zM9 440h415v1h-415zM9 441h414v1h-414zM9 442h414v1h-414zM9 443h413v1h-413zM9 444h412v1h-412zM9 445h411v1h-411zM9 446h411v1h-411zM9 447h410v1h-410zM9 448h409v1h-409zM9 449h409v1h-409zM9 450h408v1h-408zM9 451h407v1h-407zM9 452h407v1h-407zM9 453h406v1h-406zM9 454h405v1h-405zM9 455h404v1h-404zM9 456h404v1h-404zM9 457h404v1h-404zM9 458h403v1h-403zM9 459h401v1h-401zM9 460h400v1h-400zM9 461h399v1h-399zM9 462h399v1h-399zM9 463h398v1h-398zM9 464h397v1h-397zM9 465h396v1h-396zM9 466h395v1h-395zM9 467h395v1h-395zM9 468h394v1h-394zM9 469h393v1h-393zM9 470h392v1h-392zM9 471h391v1h-391zM9 472h390v1h-390zM9 473h387v1h-387zM9 474h386v1h-386zM9 475h385v1h-385zM9 476h384v1h-384zM9 477h383v1h-383zM9 478h382v1h-382zM9 479h381v1h-381zM9 480h379v1h-379zM9 481h378v1h-378zM9 482h377v1h-377zM9 483h375v1h-375zM9 484h374v1h-374zM9 485h373v1h-373zM9 486h371v1h-371zM9 487h370v1h-370zM9 488h368v1h-368zM9 489h366v1h-366zM9 490h365v1h-365zM9 491h364v1h-364zM9 492h362v1h-362zM9 493h360v1h-360zM9 494h358v1h-358zM9 495h356v1h-356zM9 496h353v1h-353zM9 497h351v1h-351zM9 498h349v1h-349zM9 499h347v1h-347zM9 500h344v1h-344zM9 501h343v1h-343zM9 502h341v1h-341zM9 503h338v1h-338zM9 504h335v1h-335zM9 505h331v1h-331zM9 506h327v1h-327zM9 507h323v1h-323zM9 508h317v1h-317zM9 509h312v1h-312zM10 510h299v1h-299z"></path></svg>