<?xml version="1.0" encoding="UTF-8"?>
<svg xmlns="http://www.w3.org/2000/svg" width="486" height="548" viewBox="0 0 486 548" role="img" aria-labelledby="title desc">
  <title id="title">BlaXx Rewards B Icon</title>
  <desc id="desc">Ícone B do logotipo BlaXx Rewards em neon green sobre fundo preto arredondado.</desc>
  <rect x="0" y="0" width="486" height="548" rx="38.9" fill="#000000"/>
  <path d="M45,45 L45,501 L46,502 L318,502 L319,501 L334,500 L353,495 L377,484 L393,473 L408,459 L425,435 L436,407 L439,392 L439,385 L440,384 L439,348 L436,333 L430,315 L423,301 L413,286 L397,269 L387,261 L388,258 L400,244 L410,226 L417,206 L420,192 L420,183 L421,182 L421,156 L420,155 L420,147 L416,128 L406,104 L393,85 L376,69 L359,58 L340,50 L316,45 Z M114,112 L306,112 L307,113 L317,114 L328,119 L334,123 L343,133 L349,144 L353,160 L353,179 L351,189 L344,205 L337,214 L328,222 L317,228 L302,232 L292,232 L291,233 L140,233 L139,234 L211,306 L320,306 L321,307 L326,307 L342,313 L350,319 L360,329 L369,346 L372,359 L372,381 L370,391 L363,406 L356,415 L347,423 L334,430 L318,434 L114,434 L112,432 L112,310 L114,306 L171,306 L113,247 L112,243 L112,116 Z" fill="#39FF14" fill-rule="evenodd"/>
</svg>
