<?xml version="1.0" encoding="UTF-8"?>
<svg xmlns="http://www.w3.org/2000/svg" width="1022" height="853" viewBox="0 0 1022 853" role="img" aria-labelledby="title desc">
  <title id="title">BlaXx Rewards Transparent Logo</title>
  <desc id="desc">Vectorização em paths do logotipo BlaXx Rewards, com preenchimentos sólidos em neon green, branco e preto.</desc>
  <path d="M320,30 L320,486 L321,487 L593,487 L594,486 L609,485 L628,480 L652,469 L668,458 L683,444 L700,420 L711,392 L714,377 L714,370 L715,369 L714,333 L711,318 L705,300 L698,286 L688,271 L672,254 L662,246 L663,243 L675,229 L685,211 L692,191 L695,177 L695,168 L696,167 L696,141 L695,140 L695,132 L691,113 L681,89 L668,70 L651,54 L634,43 L615,35 L591,30 Z M389,97 L581,97 L582,98 L592,99 L603,104 L609,108 L618,118 L624,129 L628,145 L628,164 L626,174 L619,190 L612,199 L603,207 L592,213 L577,217 L567,217 L566,218 L415,218 L414,219 L486,291 L595,291 L596,292 L601,292 L617,298 L625,304 L635,314 L644,331 L647,344 L647,366 L645,376 L638,391 L631,400 L622,408 L609,415 L593,419 L389,419 L387,417 L387,295 L389,291 L446,291 L388,232 L387,228 L387,101 Z M598,559 L679,650 L598,741 L601,742 L644,741 L702,677 L704,677 L762,742 L769,742 L770,741 L777,741 L778,742 L793,742 L794,741 L802,741 L803,742 L805,741 L807,742 L808,741 L727,652 L727,649 L808,559 L762,559 L704,624 L702,624 L643,559 Z M818,600 L882,670 L878,676 L818,741 L825,741 L826,742 L860,742 L904,695 L912,702 L948,741 L950,742 L961,742 L962,741 L988,742 L991,741 L927,671 L959,635 L985,608 L991,600 L948,600 L906,646 L904,646 L892,634 L861,600 Z M245,783 L244,784 L244,821 L251,821 L251,811 L252,810 L261,810 L269,821 L277,821 L269,810 L276,801 L276,792 L273,787 L264,783 Z M324,783 L324,821 L353,821 L353,816 L352,815 L332,815 L331,814 L331,806 L332,805 L349,805 L350,800 L349,799 L332,799 L331,798 L331,790 L332,789 L352,789 L352,783 Z M398,784 L400,787 L402,796 L411,821 L419,821 L425,801 L428,796 L430,797 L437,821 L445,821 L447,818 L447,815 L458,783 L451,783 L444,803 L444,806 L442,809 L439,807 L432,783 L425,783 L424,784 L416,809 L413,807 L406,784 L405,783 L399,783 Z M517,783 L501,821 L508,821 L509,817 L512,813 L530,813 L534,821 L541,821 L524,783 Z M586,783 L586,821 L593,821 L592,812 L594,810 L602,810 L610,821 L617,821 L617,819 L610,810 L617,802 L618,796 L616,789 L613,786 L605,783 Z M665,783 L665,821 L687,821 L694,818 L699,813 L702,805 L701,795 L698,790 L695,787 L686,783 Z M753,784 L749,787 L747,791 L748,799 L752,803 L767,807 L769,809 L769,813 L765,816 L757,816 L748,812 L746,817 L750,820 L758,822 L769,821 L776,814 L775,805 L770,801 L757,798 L754,795 L754,792 L757,789 L767,789 L773,791 L775,786 L769,783 L756,783 Z M251,790 L252,789 L263,789 L267,791 L269,794 L268,801 L264,804 L252,804 L251,803 Z M593,790 L594,789 L607,790 L610,793 L610,800 L606,804 L594,804 L593,803 Z M673,789 L684,789 L689,791 L693,795 L695,803 L694,808 L690,813 L686,815 L673,815 L671,812 L671,797 Z M520,792 L522,793 L527,805 L526,807 L515,807 L514,806 Z M30,802 L31,804 L191,804 L192,803 L191,801 L31,801 Z M830,802 L831,804 L991,804 L991,801 L831,801 Z" fill="#39FF14" fill-rule="evenodd"/>
  <path d="M30,559 L30,741 L180,741 L192,738 L202,733 L214,722 L219,714 L223,702 L224,677 L218,659 L208,648 L208,646 L215,637 L219,628 L220,623 L220,599 L217,588 L214,582 L204,570 L192,563 L176,559 Z M280,559 L280,706 L283,717 L288,726 L294,732 L304,738 L314,741 L349,741 L349,712 L322,712 L317,710 L312,705 L310,701 L310,559 Z M61,590 L62,589 L174,589 L181,592 L187,598 L190,607 L190,615 L186,625 L182,629 L173,633 L62,633 L60,631 L60,597 L61,596 Z M402,614 L395,627 L393,635 L393,644 L423,644 L423,641 L426,634 L430,630 L441,626 L505,626 L518,631 L524,638 L526,647 L526,655 L524,657 L429,657 L417,660 L404,667 L396,676 L391,689 L391,709 L397,724 L405,732 L413,737 L426,741 L433,741 L434,742 L501,742 L514,739 L524,733 L526,734 L526,741 L556,741 L556,638 L553,627 L549,619 L538,607 L527,601 L512,597 L434,597 L420,601 L412,605 Z M61,664 L62,663 L175,663 L181,665 L190,673 L193,679 L193,686 L194,687 L193,695 L191,700 L185,707 L180,710 L172,712 L62,712 L60,710 L60,669 Z M421,702 L421,696 L424,690 L432,685 L437,684 L524,684 L526,686 L525,697 L522,703 L516,709 L506,713 L434,713 L428,711 L422,705 Z" fill="#FFFFFF" fill-rule="evenodd"/>
</svg>
