<svg xmlns="http://www.w3.org/2000/svg" width="760" height="760" viewBox="0 0 760 760"><path fill="#000000" d="M265 141h166v1h-166zM265 142h173v1h-173zM265 143h176v1h-176zM265 144h180v1h-180zM265 145h183v1h-183zM265 146h185v1h-185zM265 147h188v1h-188zM265 148h190v1h-190zM265 149h192v1h-192zM265 150h193v1h-193zM265 151h195v1h-195zM265 152h196v1h-196zM265 153h198v1h-198zM265 154h200v1h-200zM265 155h201v1h-201zM265 156h202v1h-202zM265 157h203v1h-203zM265 158h205v1h-205zM265 159h206v1h-206zM265 160h207v1h-207zM265 161h208v1h-208zM265 162h209v1h-209zM265 163h210v1h-210zM265 164h211v1h-211zM265 165h212v1h-212zM265 166h212v1h-212zM265 167h213v1h-213zM265 168h214v1h-214zM265 169h215v1h-215zM265 170h216v1h-216zM265 171h216v1h-216zM265 172h217v1h-217zM265 173h217v1h-217zM265 174h218v1h-218zM265 175h219v1h-219zM265 176h219v1h-219zM265 177h220v1h-220zM265 178h221v1h-221zM265 179h221v1h-221zM265 180h221v1h-221zM265 181h222v1h-222zM265 182h47v1h-47zM320 182h10v1h-10zM359 182h10v1h-10zM383 182h5v1h-5zM423 182h64v1h-64zM265 183h42v1h-42zM429 183h59v1h-59zM265 184h42v1h-42zM433 184h55v1h-55zM265 185h42v1h-42zM434 185h55v1h-55zM265 186h42v1h-42zM436 186h53v1h-53zM265 187h42v1h-42zM438 187h51v1h-51zM265 188h42v1h-42zM440 188h50v1h-50zM265 189h42v1h-42zM441 189h49v1h-49zM265 190h42v1h-42zM442 190h48v1h-48zM265 191h42v1h-42zM443 191h48v1h-48zM265 192h42v1h-42zM444 192h47v1h-47zM265 193h42v1h-42zM445 193h46v1h-46zM265 194h42v1h-42zM445 194h47v1h-47zM265 195h42v1h-42zM446 195h46v1h-46zM265 196h42v1h-42zM447 196h45v1h-45zM265 197h42v1h-42zM447 197h45v1h-45zM265 198h42v1h-42zM448 198h44v1h-44zM265 199h42v1h-42zM448 199h45v1h-45zM265 200h42v1h-42zM449 200h44v1h-44zM265 201h42v1h-42zM449 201h44v1h-44zM265 202h42v1h-42zM450 202h43v1h-43zM265 203h42v1h-42zM450 203h43v1h-43zM265 204h42v1h-42zM450 204h43v1h-43zM265 205h42v1h-42zM451 205h42v1h-42zM265 206h42v1h-42zM451 206h42v1h-42zM265 207h42v1h-42zM451 207h42v1h-42zM265 208h42v1h-42zM451 208h43v1h-43zM265 209h42v1h-42zM451 209h43v1h-43zM265 210h42v1h-42zM451 210h43v1h-43zM265 211h42v1h-42zM452 211h42v1h-42zM265 212h42v1h-42zM452 212h42v1h-42zM265 213h42v1h-42zM452 213h42v1h-42zM265 214h42v1h-42zM452 214h42v1h-42zM265 215h42v1h-42zM452 215h42v1h-42zM265 216h42v1h-42zM452 216h42v1h-42zM265 217h42v1h-42zM452 217h42v1h-42zM265 218h42v1h-42zM452 218h42v1h-42zM265 219h42v1h-42zM452 219h42v1h-42zM265 220h42v1h-42zM452 220h42v1h-42zM265 221h42v1h-42zM452 221h42v1h-42zM265 222h42v1h-42zM452 222h42v1h-42zM265 223h42v1h-42zM451 223h43v1h-43zM265 224h42v1h-42zM451 224h43v1h-43zM265 225h42v1h-42zM451 225h43v1h-43zM265 226h42v1h-42zM451 226h42v1h-42zM265 227h42v1h-42zM451 227h42v1h-42zM265 228h42v1h-42zM451 228h42v1h-42zM265 229h42v1h-42zM450 229h43v1h-43zM265 230h42v1h-42zM450 230h43v1h-43zM265 231h42v1h-42zM450 231h43v1h-43zM265 232h42v1h-42zM450 232h43v1h-43zM265 233h42v1h-42zM449 233h44v1h-44zM265 234h42v1h-42zM448 234h44v1h-44zM265 235h42v1h-42zM448 235h44v1h-44zM265 236h42v1h-42zM447 236h45v1h-45zM265 237h42v1h-42zM447 237h45v1h-45zM265 238h42v1h-42zM447 238h45v1h-45zM265 239h42v1h-42zM446 239h45v1h-45zM265 240h42v1h-42zM445 240h46v1h-46zM265 241h42v1h-42zM444 241h47v1h-47zM265 242h42v1h-42zM443 242h47v1h-47zM265 243h42v1h-42zM442 243h48v1h-48zM265 244h42v1h-42zM442 244h48v1h-48zM265 245h42v1h-42zM440 245h49v1h-49zM265 246h42v1h-42zM439 246h50v1h-50zM265 247h42v1h-42zM438 247h51v1h-51zM265 248h42v1h-42zM437 248h51v1h-51zM265 249h42v1h-42zM435 249h53v1h-53zM265 250h42v1h-42zM433 250h54v1h-54zM265 251h42v1h-42zM431 251h56v1h-56zM265 252h42v1h-42zM429 252h58v1h-58zM265 253h42v1h-42zM425 253h61v1h-61zM265 254h42v1h-42zM412 254h74v1h-74zM265 255h42v1h-42zM322 255h163v1h-163zM265 256h42v1h-42zM323 256h161v1h-161zM265 257h42v1h-42zM324 257h160v1h-160zM265 258h42v1h-42zM325 258h158v1h-158zM265 259h42v1h-42zM326 259h157v1h-157zM265 260h42v1h-42zM327 260h155v1h-155zM265 261h42v1h-42zM328 261h153v1h-153zM265 262h42v1h-42zM329 262h152v1h-152zM265 263h42v1h-42zM330 263h150v1h-150zM265 264h43v1h-43zM331 264h148v1h-148zM265 265h44v1h-44zM332 265h147v1h-147zM265 266h45v1h-45zM333 266h145v1h-145zM265 267h46v1h-46zM334 267h143v1h-143zM265 268h47v1h-47zM335 268h141v1h-141zM265 269h48v1h-48zM336 269h139v1h-139zM265 270h49v1h-49zM337 270h138v1h-138zM265 271h50v1h-50zM338 271h136v1h-136zM265 272h51v1h-51zM339 272h134v1h-134zM265 273h52v1h-52zM340 273h135v1h-135zM265 274h53v1h-53zM341 274h135v1h-135zM265 275h54v1h-54zM342 275h135v1h-135zM265 276h55v1h-55zM343 276h135v1h-135zM265 277h56v1h-56zM344 277h136v1h-136zM265 278h57v1h-57zM345 278h136v1h-136zM265 279h58v1h-58zM346 279h136v1h-136zM265 280h59v1h-59zM347 280h136v1h-136zM265 281h60v1h-60zM348 281h136v1h-136zM265 282h61v1h-61zM349 282h136v1h-136zM265 283h62v1h-62zM350 283h136v1h-136zM265 284h63v1h-63zM351 284h136v1h-136zM265 285h64v1h-64zM352 285h135v1h-135zM265 286h65v1h-65zM353 286h135v1h-135zM265 287h65v1h-65zM354 287h135v1h-135zM265 288h67v1h-67zM355 288h135v1h-135zM265 289h68v1h-68zM356 289h134v1h-134zM265 290h69v1h-69zM357 290h134v1h-134zM265 291h70v1h-70zM358 291h134v1h-134zM265 292h71v1h-71zM359 292h133v1h-133zM265 293h72v1h-72zM360 293h133v1h-133zM265 294h73v1h-73zM361 294h133v1h-133zM265 295h74v1h-74zM362 295h133v1h-133zM265 296h74v1h-74zM362 296h133v1h-133zM265 297h76v1h-76zM363 297h132v1h-132zM265 298h76v1h-76zM364 298h132v1h-132zM265 299h77v1h-77zM366 299h131v1h-131zM265 300h42v1h-42zM432 300h65v1h-65zM265 301h42v1h-42zM438 301h60v1h-60zM265 302h42v1h-42zM441 302h57v1h-57zM265 303h42v1h-42zM443 303h55v1h-55zM265 304h42v1h-42zM445 304h54v1h-54zM265 305h42v1h-42zM447 305h52v1h-52zM265 306h42v1h-42zM448 306h52v1h-52zM265 307h42v1h-42zM450 307h50v1h-50zM265 308h42v1h-42zM451 308h50v1h-50zM265 309h42v1h-42zM452 309h49v1h-49zM265 310h42v1h-42zM453 310h48v1h-48zM265 311h42v1h-42zM454 311h48v1h-48zM265 312h42v1h-42zM455 312h47v1h-47zM265 313h42v1h-42zM456 313h46v1h-46zM265 314h42v1h-42zM456 314h46v1h-46zM265 315h42v1h-42zM458 315h45v1h-45zM265 316h42v1h-42zM458 316h45v1h-45zM265 317h42v1h-42zM458 317h45v1h-45zM265 318h42v1h-42zM459 318h45v1h-45zM265 319h42v1h-42zM459 319h45v1h-45zM265 320h42v1h-42zM460 320h44v1h-44zM265 321h42v1h-42zM461 321h43v1h-43zM265 322h42v1h-42zM461 322h43v1h-43zM265 323h42v1h-42zM461 323h43v1h-43zM265 324h42v1h-42zM462 324h42v1h-42zM265 325h42v1h-42zM462 325h43v1h-43zM265 326h42v1h-42zM462 326h43v1h-43zM265 327h42v1h-42zM462 327h43v1h-43zM265 328h42v1h-42zM463 328h42v1h-42zM265 329h42v1h-42zM463 329h42v1h-42zM265 330h42v1h-42zM463 330h43v1h-43zM265 331h42v1h-42zM463 331h43v1h-43zM265 332h42v1h-42zM464 332h42v1h-42zM265 333h42v1h-42zM464 333h42v1h-42zM265 334h42v1h-42zM464 334h42v1h-42zM265 335h42v1h-42zM464 335h42v1h-42zM265 336h42v1h-42zM464 336h42v1h-42zM265 337h42v1h-42zM464 337h42v1h-42zM265 338h42v1h-42zM464 338h42v1h-42zM265 339h42v1h-42zM464 339h42v1h-42zM265 340h42v1h-42zM464 340h42v1h-42zM265 341h42v1h-42zM464 341h42v1h-42zM265 342h42v1h-42zM464 342h42v1h-42zM265 343h42v1h-42zM464 343h42v1h-42zM265 344h42v1h-42zM464 344h42v1h-42zM265 345h42v1h-42zM463 345h43v1h-43zM265 346h42v1h-42zM463 346h43v1h-43zM265 347h42v1h-42zM463 347h42v1h-42zM265 348h42v1h-42zM463 348h42v1h-42zM265 349h42v1h-42zM462 349h43v1h-43zM265 350h42v1h-42zM462 350h43v1h-43zM265 351h42v1h-42zM462 351h43v1h-43zM265 352h42v1h-42zM462 352h42v1h-42zM265 353h42v1h-42zM461 353h43v1h-43zM265 354h42v1h-42zM461 354h43v1h-43zM265 355h42v1h-42zM461 355h43v1h-43zM265 356h42v1h-42zM460 356h44v1h-44zM265 357h42v1h-42zM459 357h45v1h-45zM265 358h42v1h-42zM459 358h45v1h-45zM265 359h42v1h-42zM458 359h45v1h-45zM265 360h42v1h-42zM458 360h45v1h-45zM265 361h42v1h-42zM457 361h45v1h-45zM265 362h42v1h-42zM456 362h46v1h-46zM265 363h42v1h-42zM456 363h46v1h-46zM265 364h42v1h-42zM454 364h48v1h-48zM265 365h42v1h-42zM453 365h49v1h-49zM265 366h42v1h-42zM453 366h48v1h-48zM265 367h42v1h-42zM451 367h50v1h-50zM265 368h42v1h-42zM450 368h50v1h-50zM265 369h42v1h-42zM450 369h50v1h-50zM265 370h42v1h-42zM448 370h52v1h-52zM265 371h42v1h-42zM446 371h53v1h-53zM265 372h42v1h-42zM445 372h54v1h-54zM265 373h42v1h-42zM442 373h56v1h-56zM265 374h42v1h-42zM440 374h58v1h-58zM265 375h42v1h-42zM437 375h61v1h-61zM265 376h42v1h-42zM431 376h66v1h-66zM265 377h231v1h-231zM265 378h231v1h-231zM265 379h230v1h-230zM265 380h230v1h-230zM265 381h229v1h-229zM265 382h228v1h-228zM265 383h228v1h-228zM265 384h227v1h-227zM265 385h226v1h-226zM265 386h226v1h-226zM265 387h225v1h-225zM265 388h224v1h-224zM265 389h224v1h-224zM265 390h222v1h-222zM265 391h222v1h-222zM265 392h221v1h-221zM265 393h220v1h-220zM265 394h219v1h-219zM265 395h218v1h-218zM265 396h217v1h-217zM265 397h216v1h-216zM265 398h214v1h-214zM265 399h213v1h-213zM265 400h213v1h-213zM265 401h211v1h-211zM265 402h210v1h-210zM265 403h208v1h-208zM265 404h207v1h-207zM265 405h206v1h-206zM265 406h204v1h-204zM265 407h202v1h-202zM265 408h201v1h-201zM265 409h199v1h-199zM265 410h196v1h-196zM265 411h195v1h-195zM265 412h193v1h-193zM265 413h190v1h-190zM265 414h188v1h-188zM265 415h184v1h-184zM265 416h179v1h-179zM265 417h176v1h-176zM266 418h166v1h-166zM90 462h94v1h-94zM241 462h19v1h-19zM434 462h28v1h-28zM533 462h28v1h-28zM90 463h96v1h-96zM241 463h19v1h-19zM435 463h28v1h-28zM532 463h29v1h-29zM90 464h99v1h-99zM241 464h19v1h-19zM436 464h28v1h-28zM531 464h28v1h-28zM90 465h101v1h-101zM241 465h19v1h-19zM437 465h28v1h-28zM530 465h29v1h-29zM90 466h102v1h-102zM241 466h19v1h-19zM438 466h28v1h-28zM529 466h29v1h-29zM90 467h104v1h-104zM241 467h19v1h-19zM438 467h29v1h-29zM528 467h29v1h-29zM90 468h106v1h-106zM241 468h19v1h-19zM439 468h29v1h-29zM527 468h29v1h-29zM90 469h107v1h-107zM241 469h19v1h-19zM440 469h29v1h-29zM527 469h28v1h-28zM90 470h108v1h-108zM241 470h19v1h-19zM441 470h29v1h-29zM525 470h29v1h-29zM90 471h109v1h-109zM241 471h19v1h-19zM442 471h29v1h-29zM524 471h30v1h-30zM90 472h110v1h-110zM241 472h19v1h-19zM443 472h29v1h-29zM524 472h29v1h-29zM90 473h110v1h-110zM241 473h19v1h-19zM444 473h29v1h-29zM523 473h29v1h-29zM90 474h111v1h-111zM241 474h19v1h-19zM444 474h29v1h-29zM522 474h29v1h-29zM90 475h111v1h-111zM241 475h19v1h-19zM445 475h29v1h-29zM521 475h29v1h-29zM90 476h112v1h-112zM241 476h19v1h-19zM446 476h29v1h-29zM520 476h29v1h-29zM90 477h113v1h-113zM241 477h19v1h-19zM447 477h29v1h-29zM519 477h29v1h-29zM90 478h113v1h-113zM241 478h19v1h-19zM448 478h29v1h-29zM518 478h29v1h-29zM90 479h114v1h-114zM241 479h19v1h-19zM449 479h29v1h-29zM518 479h28v1h-28zM90 480h114v1h-114zM241 480h19v1h-19zM450 480h28v1h-28zM517 480h28v1h-28zM90 481h19v1h-19zM179 481h25v1h-25zM241 481h19v1h-19zM451 481h28v1h-28zM516 481h28v1h-28zM90 482h19v1h-19zM181 482h24v1h-24zM241 482h19v1h-19zM452 482h29v1h-29zM515 482h28v1h-28zM90 483h19v1h-19zM182 483h23v1h-23zM241 483h19v1h-19zM453 483h28v1h-28zM514 483h29v1h-29zM90 484h19v1h-19zM184 484h21v1h-21zM241 484h19v1h-19zM338 484h41v1h-41zM454 484h28v1h-28zM513 484h29v1h-29zM90 485h19v1h-19zM184 485h22v1h-22zM241 485h19v1h-19zM331 485h56v1h-56zM454 485h29v1h-29zM512 485h29v1h-29zM90 486h19v1h-19zM185 486h21v1h-21zM241 486h19v1h-19zM328 486h61v1h-61zM455 486h29v1h-29zM511 486h29v1h-29zM90 487h19v1h-19zM185 487h21v1h-21zM241 487h19v1h-19zM325 487h67v1h-67zM456 487h29v1h-29zM510 487h29v1h-29zM567 487h28v1h-28zM645 487h28v1h-28zM90 488h19v1h-19zM185 488h21v1h-21zM241 488h19v1h-19zM323 488h71v1h-71zM457 488h29v1h-29zM509 488h29v1h-29zM568 488h28v1h-28zM644 488h28v1h-28zM90 489h19v1h-19zM186 489h20v1h-20zM241 489h19v1h-19zM322 489h74v1h-74zM458 489h29v1h-29zM509 489h28v1h-28zM569 489h28v1h-28zM643 489h28v1h-28zM90 490h19v1h-19zM186 490h20v1h-20zM241 490h19v1h-19zM320 490h78v1h-78zM459 490h28v1h-28zM508 490h29v1h-29zM570 490h28v1h-28zM643 490h27v1h-27zM90 491h19v1h-19zM186 491h20v1h-20zM241 491h19v1h-19zM319 491h80v1h-80zM460 491h28v1h-28zM507 491h29v1h-29zM571 491h28v1h-28zM642 491h27v1h-27zM90 492h19v1h-19zM186 492h20v1h-20zM241 492h19v1h-19zM318 492h82v1h-82zM461 492h28v1h-28zM506 492h29v1h-29zM572 492h28v1h-28zM641 492h28v1h-28zM90 493h19v1h-19zM186 493h20v1h-20zM241 493h19v1h-19zM317 493h84v1h-84zM462 493h28v1h-28zM505 493h29v1h-29zM573 493h28v1h-28zM640 493h27v1h-27zM90 494h19v1h-19zM186 494h20v1h-20zM241 494h19v1h-19zM316 494h86v1h-86zM463 494h28v1h-28zM504 494h29v1h-29zM574 494h27v1h-27zM639 494h28v1h-28zM90 495h19v1h-19zM186 495h20v1h-20zM241 495h19v1h-19zM315 495h88v1h-88zM464 495h28v1h-28zM504 495h28v1h-28zM574 495h28v1h-28zM638 495h28v1h-28zM90 496h19v1h-19zM186 496h20v1h-20zM241 496h19v1h-19zM314 496h90v1h-90zM465 496h28v1h-28zM502 496h29v1h-29zM576 496h27v1h-27zM637 496h27v1h-27zM90 497h19v1h-19zM186 497h20v1h-20zM241 497h19v1h-19zM314 497h91v1h-91zM466 497h28v1h-28zM502 497h28v1h-28zM576 497h28v1h-28zM636 497h28v1h-28zM90 498h19v1h-19zM185 498h21v1h-21zM241 498h19v1h-19zM313 498h92v1h-92zM466 498h29v1h-29zM501 498h28v1h-28zM578 498h27v1h-27zM636 498h26v1h-26zM90 499h19v1h-19zM185 499h21v1h-21zM241 499h19v1h-19zM312 499h94v1h-94zM467 499h29v1h-29zM500 499h28v1h-28zM579 499h27v1h-27zM635 499h27v1h-27zM90 500h19v1h-19zM185 500h21v1h-21zM241 500h19v1h-19zM312 500h94v1h-94zM468 500h29v1h-29zM499 500h28v1h-28zM579 500h28v1h-28zM634 500h27v1h-27zM90 501h19v1h-19zM184 501h22v1h-22zM241 501h19v1h-19zM311 501h96v1h-96zM469 501h57v1h-57zM580 501h27v1h-27zM633 501h27v1h-27zM90 502h19v1h-19zM183 502h22v1h-22zM241 502h19v1h-19zM311 502h96v1h-96zM470 502h56v1h-56zM581 502h27v1h-27zM632 502h27v1h-27zM90 503h19v1h-19zM182 503h23v1h-23zM241 503h19v1h-19zM311 503h30v1h-30zM376 503h31v1h-31zM471 503h54v1h-54zM582 503h27v1h-27zM631 503h27v1h-27zM90 504h19v1h-19zM181 504h23v1h-23zM241 504h19v1h-19zM310 504h25v1h-25zM382 504h26v1h-26zM471 504h53v1h-53zM583 504h27v1h-27zM630 504h27v1h-27zM90 505h19v1h-19zM178 505h26v1h-26zM241 505h19v1h-19zM310 505h24v1h-24zM384 505h24v1h-24zM472 505h51v1h-51zM584 505h27v1h-27zM629 505h27v1h-27zM90 506h19v1h-19zM176 506h28v1h-28zM241 506h19v1h-19zM310 506h22v1h-22zM385 506h24v1h-24zM473 506h49v1h-49zM585 506h27v1h-27zM628 506h27v1h-27zM90 507h114v1h-114zM241 507h19v1h-19zM310 507h21v1h-21zM387 507h22v1h-22zM474 507h47v1h-47zM586 507h27v1h-27zM627 507h28v1h-28zM90 508h113v1h-113zM241 508h19v1h-19zM310 508h20v1h-20zM387 508h22v1h-22zM475 508h45v1h-45zM587 508h27v1h-27zM626 508h28v1h-28zM90 509h112v1h-112zM241 509h19v1h-19zM310 509h20v1h-20zM388 509h21v1h-21zM476 509h43v1h-43zM587 509h28v1h-28zM625 509h28v1h-28zM90 510h112v1h-112zM241 510h19v1h-19zM310 510h19v1h-19zM389 510h20v1h-20zM477 510h41v1h-41zM588 510h28v1h-28zM624 510h28v1h-28zM90 511h111v1h-111zM241 511h19v1h-19zM310 511h19v1h-19zM389 511h20v1h-20zM478 511h39v1h-39zM589 511h28v1h-28zM624 511h27v1h-27zM90 512h111v1h-111zM241 512h19v1h-19zM309 512h20v1h-20zM390 512h19v1h-19zM479 512h37v1h-37zM590 512h28v1h-28zM623 512h27v1h-27zM90 513h110v1h-110zM241 513h19v1h-19zM310 513h19v1h-19zM390 513h19v1h-19zM480 513h35v1h-35zM591 513h28v1h-28zM622 513h27v1h-27zM90 514h109v1h-109zM241 514h19v1h-19zM390 514h20v1h-20zM481 514h34v1h-34zM592 514h28v1h-28zM621 514h27v1h-27zM90 515h108v1h-108zM241 515h19v1h-19zM390 515h20v1h-20zM482 515h32v1h-32zM593 515h54v1h-54zM90 516h109v1h-109zM241 516h19v1h-19zM390 516h20v1h-20zM482 516h31v1h-31zM594 516h52v1h-52zM90 517h110v1h-110zM241 517h19v1h-19zM390 517h20v1h-20zM483 517h29v1h-29zM595 517h50v1h-50zM90 518h111v1h-111zM241 518h19v1h-19zM390 518h20v1h-20zM482 518h31v1h-31zM596 518h48v1h-48zM90 519h112v1h-112zM241 519h19v1h-19zM390 519h20v1h-20zM481 519h33v1h-33zM597 519h46v1h-46zM90 520h113v1h-113zM241 520h19v1h-19zM389 520h21v1h-21zM480 520h35v1h-35zM598 520h44v1h-44zM90 521h114v1h-114zM241 521h19v1h-19zM331 521h79v1h-79zM479 521h37v1h-37zM599 521h42v1h-42zM90 522h114v1h-114zM241 522h19v1h-19zM326 522h84v1h-84zM478 522h39v1h-39zM600 522h41v1h-41zM90 523h114v1h-114zM241 523h19v1h-19zM323 523h87v1h-87zM478 523h40v1h-40zM601 523h39v1h-39zM90 524h115v1h-115zM241 524h19v1h-19zM321 524h89v1h-89zM477 524h41v1h-41zM601 524h38v1h-38zM90 525h116v1h-116zM241 525h19v1h-19zM319 525h91v1h-91zM476 525h43v1h-43zM602 525h36v1h-36zM90 526h19v1h-19zM179 526h27v1h-27zM241 526h19v1h-19zM318 526h92v1h-92zM475 526h45v1h-45zM603 526h34v1h-34zM90 527h19v1h-19zM182 527h25v1h-25zM241 527h19v1h-19zM316 527h94v1h-94zM474 527h47v1h-47zM604 527h32v1h-32zM90 528h19v1h-19zM183 528h24v1h-24zM241 528h19v1h-19zM315 528h95v1h-95zM473 528h49v1h-49zM605 528h30v1h-30zM90 529h19v1h-19zM184 529h23v1h-23zM241 529h19v1h-19zM314 529h96v1h-96zM473 529h50v1h-50zM606 529h28v1h-28zM90 530h19v1h-19zM185 530h22v1h-22zM241 530h19v1h-19zM313 530h97v1h-97zM471 530h53v1h-53zM605 530h30v1h-30zM90 531h19v1h-19zM186 531h21v1h-21zM241 531h19v1h-19zM312 531h98v1h-98zM470 531h55v1h-55zM604 531h32v1h-32zM90 532h19v1h-19zM187 532h21v1h-21zM241 532h19v1h-19zM312 532h98v1h-98zM470 532h56v1h-56zM604 532h32v1h-32zM90 533h19v1h-19zM187 533h21v1h-21zM241 533h19v1h-19zM311 533h99v1h-99zM468 533h59v1h-59zM603 533h35v1h-35zM90 534h19v1h-19zM188 534h20v1h-20zM241 534h19v1h-19zM311 534h99v1h-99zM468 534h29v1h-29zM499 534h29v1h-29zM602 534h37v1h-37zM90 535h19v1h-19zM188 535h20v1h-20zM241 535h19v1h-19zM310 535h100v1h-100zM467 535h29v1h-29zM500 535h29v1h-29zM601 535h38v1h-38zM90 536h19v1h-19zM188 536h20v1h-20zM241 536h19v1h-19zM310 536h100v1h-100zM466 536h29v1h-29zM501 536h29v1h-29zM600 536h40v1h-40zM90 537h19v1h-19zM188 537h20v1h-20zM241 537h19v1h-19zM309 537h101v1h-101zM465 537h29v1h-29zM501 537h29v1h-29zM599 537h42v1h-42zM90 538h19v1h-19zM188 538h20v1h-20zM241 538h19v1h-19zM309 538h101v1h-101zM464 538h29v1h-29zM502 538h29v1h-29zM598 538h44v1h-44zM90 539h19v1h-19zM188 539h20v1h-20zM241 539h19v1h-19zM309 539h24v1h-24zM390 539h20v1h-20zM463 539h29v1h-29zM503 539h29v1h-29zM597 539h46v1h-46zM90 540h19v1h-19zM188 540h20v1h-20zM241 540h19v1h-19zM308 540h23v1h-23zM390 540h20v1h-20zM462 540h29v1h-29zM504 540h29v1h-29zM596 540h48v1h-48zM90 541h19v1h-19zM188 541h20v1h-20zM241 541h19v1h-19zM308 541h22v1h-22zM390 541h20v1h-20zM462 541h28v1h-28zM505 541h29v1h-29zM596 541h49v1h-49zM90 542h19v1h-19zM188 542h20v1h-20zM241 542h19v1h-19zM308 542h21v1h-21zM390 542h20v1h-20zM461 542h28v1h-28zM506 542h29v1h-29zM595 542h51v1h-51zM90 543h19v1h-19zM188 543h20v1h-20zM241 543h19v1h-19zM308 543h20v1h-20zM390 543h20v1h-20zM460 543h28v1h-28zM507 543h29v1h-29zM594 543h52v1h-52zM90 544h19v1h-19zM188 544h20v1h-20zM241 544h19v1h-19zM308 544h20v1h-20zM390 544h20v1h-20zM459 544h28v1h-28zM508 544h28v1h-28zM593 544h54v1h-54zM90 545h19v1h-19zM188 545h20v1h-20zM241 545h19v1h-19zM308 545h20v1h-20zM389 545h21v1h-21zM458 545h28v1h-28zM509 545h28v1h-28zM592 545h27v1h-27zM621 545h27v1h-27zM90 546h19v1h-19zM187 546h21v1h-21zM241 546h19v1h-19zM308 546h19v1h-19zM389 546h21v1h-21zM457 546h29v1h-29zM510 546h28v1h-28zM591 546h27v1h-27zM622 546h27v1h-27zM90 547h19v1h-19zM187 547h21v1h-21zM241 547h20v1h-20zM308 547h19v1h-19zM388 547h22v1h-22zM456 547h29v1h-29zM511 547h28v1h-28zM590 547h27v1h-27zM623 547h27v1h-27zM90 548h19v1h-19zM186 548h21v1h-21zM241 548h20v1h-20zM308 548h20v1h-20zM388 548h22v1h-22zM455 548h29v1h-29zM511 548h29v1h-29zM589 548h27v1h-27zM624 548h27v1h-27zM90 549h19v1h-19zM185 549h22v1h-22zM241 549h20v1h-20zM308 549h20v1h-20zM387 549h23v1h-23zM454 549h29v1h-29zM512 549h29v1h-29zM588 549h28v1h-28zM624 549h28v1h-28zM90 550h19v1h-19zM184 550h23v1h-23zM241 550h21v1h-21zM308 550h21v1h-21zM387 550h23v1h-23zM453 550h29v1h-29zM513 550h29v1h-29zM587 550h28v1h-28zM625 550h28v1h-28zM90 551h19v1h-19zM183 551h24v1h-24zM241 551h21v1h-21zM308 551h21v1h-21zM385 551h25v1h-25zM452 551h29v1h-29zM514 551h29v1h-29zM586 551h28v1h-28zM626 551h28v1h-28zM90 552h19v1h-19zM182 552h24v1h-24zM241 552h22v1h-22zM308 552h22v1h-22zM384 552h26v1h-26zM452 552h28v1h-28zM515 552h29v1h-29zM585 552h28v1h-28zM627 552h28v1h-28zM90 553h19v1h-19zM179 553h27v1h-27zM242 553h23v1h-23zM308 553h24v1h-24zM382 553h28v1h-28zM451 553h29v1h-29zM516 553h29v1h-29zM584 553h28v1h-28zM628 553h28v1h-28zM90 554h116v1h-116zM242 554h42v1h-42zM309 554h27v1h-27zM378 554h32v1h-32zM450 554h29v1h-29zM516 554h30v1h-30zM584 554h27v1h-27zM629 554h28v1h-28zM90 555h115v1h-115zM242 555h42v1h-42zM309 555h101v1h-101zM449 555h29v1h-29zM518 555h29v1h-29zM583 555h27v1h-27zM630 555h28v1h-28zM90 556h114v1h-114zM242 556h42v1h-42zM309 556h101v1h-101zM448 556h29v1h-29zM519 556h29v1h-29zM582 556h27v1h-27zM631 556h28v1h-28zM90 557h114v1h-114zM243 557h41v1h-41zM310 557h100v1h-100zM447 557h29v1h-29zM519 557h29v1h-29zM581 557h27v1h-27zM632 557h27v1h-27zM90 558h114v1h-114zM243 558h41v1h-41zM310 558h100v1h-100zM447 558h28v1h-28zM521 558h28v1h-28zM580 558h27v1h-27zM633 558h28v1h-28zM90 559h113v1h-113zM244 559h40v1h-40zM311 559h99v1h-99zM446 559h28v1h-28zM522 559h28v1h-28zM579 559h27v1h-27zM634 559h27v1h-27zM90 560h112v1h-112zM244 560h40v1h-40zM311 560h99v1h-99zM445 560h28v1h-28zM522 560h29v1h-29zM578 560h27v1h-27zM635 560h27v1h-27zM90 561h111v1h-111zM245 561h39v1h-39zM312 561h98v1h-98zM444 561h28v1h-28zM523 561h29v1h-29zM577 561h27v1h-27zM636 561h27v1h-27zM90 562h111v1h-111zM245 562h39v1h-39zM312 562h98v1h-98zM442 562h29v1h-29zM524 562h29v1h-29zM576 562h27v1h-27zM637 562h27v1h-27zM90 563h110v1h-110zM246 563h38v1h-38zM313 563h97v1h-97zM442 563h28v1h-28zM525 563h29v1h-29zM576 563h26v1h-26zM638 563h27v1h-27zM90 564h109v1h-109zM247 564h37v1h-37zM314 564h96v1h-96zM441 564h28v1h-28zM526 564h29v1h-29zM574 564h27v1h-27zM639 564h27v1h-27zM90 565h108v1h-108zM248 565h36v1h-36zM315 565h95v1h-95zM440 565h29v1h-29zM527 565h29v1h-29zM573 565h28v1h-28zM639 565h28v1h-28zM90 566h106v1h-106zM249 566h35v1h-35zM316 566h94v1h-94zM439 566h29v1h-29zM527 566h30v1h-30zM573 566h27v1h-27zM640 566h27v1h-27zM90 567h105v1h-105zM250 567h34v1h-34zM317 567h93v1h-93zM438 567h29v1h-29zM528 567h30v1h-30zM571 567h28v1h-28zM641 567h28v1h-28zM90 568h104v1h-104zM251 568h33v1h-33zM318 568h71v1h-71zM390 568h20v1h-20zM437 568h29v1h-29zM529 568h30v1h-30zM571 568h27v1h-27zM642 568h28v1h-28zM90 569h102v1h-102zM253 569h31v1h-31zM320 569h67v1h-67zM390 569h20v1h-20zM436 569h29v1h-29zM530 569h29v1h-29zM570 569h27v1h-27zM643 569h27v1h-27zM90 570h99v1h-99zM255 570h29v1h-29zM323 570h63v1h-63zM390 570h20v1h-20zM436 570h28v1h-28zM531 570h29v1h-29zM569 570h27v1h-27zM644 570h28v1h-28zM90 571h97v1h-97zM257 571h27v1h-27zM324 571h60v1h-60zM390 571h20v1h-20zM435 571h28v1h-28zM532 571h29v1h-29zM568 571h27v1h-27zM645 571h28v1h-28zM90 572h92v1h-92zM261 572h23v1h-23zM328 572h53v1h-53zM390 572h20v1h-20zM434 572h28v1h-28zM533 572h29v1h-29zM567 572h27v1h-27zM645 572h28v1h-28zM219 598h16v1h-16zM268 598h18v1h-18zM313 598h5v1h-5zM328 598h6v1h-6zM344 598h6v1h-6zM385 598h5v1h-5zM427 598h15v1h-15zM474 598h16v1h-16zM528 598h12v1h-12zM219 599h18v1h-18zM268 599h18v1h-18zM313 599h6v1h-6zM328 599h6v1h-6zM344 599h5v1h-5zM384 599h6v1h-6zM427 599h17v1h-17zM474 599h18v1h-18zM526 599h16v1h-16zM219 600h19v1h-19zM268 600h18v1h-18zM313 600h6v1h-6zM328 600h7v1h-7zM344 600h5v1h-5zM384 600h7v1h-7zM427 600h17v1h-17zM474 600h20v1h-20zM525 600h17v1h-17zM219 601h19v1h-19zM268 601h18v1h-18zM314 601h5v1h-5zM328 601h7v1h-7zM344 601h5v1h-5zM384 601h8v1h-8zM427 601h19v1h-19zM474 601h21v1h-21zM525 601h16v1h-16zM219 602h5v1h-5zM232 602h7v1h-7zM268 602h5v1h-5zM314 602h5v1h-5zM327 602h8v1h-8zM343 602h5v1h-5zM383 602h9v1h-9zM427 602h5v1h-5zM439 602h7v1h-7zM474 602h5v1h-5zM488 602h8v1h-8zM524 602h6v1h-6zM539 602h2v1h-2zM219 603h5v1h-5zM234 603h5v1h-5zM268 603h5v1h-5zM314 603h6v1h-6zM327 603h9v1h-9zM343 603h5v1h-5zM382 603h5v1h-5zM388 603h4v1h-4zM427 603h5v1h-5zM441 603h5v1h-5zM474 603h5v1h-5zM490 603h6v1h-6zM524 603h5v1h-5zM219 604h5v1h-5zM234 604h5v1h-5zM268 604h5v1h-5zM315 604h5v1h-5zM327 604h9v1h-9zM342 604h5v1h-5zM382 604h5v1h-5zM388 604h5v1h-5zM427 604h5v1h-5zM441 604h5v1h-5zM474 604h5v1h-5zM491 604h5v1h-5zM524 604h5v1h-5zM219 605h5v1h-5zM234 605h5v1h-5zM268 605h5v1h-5zM315 605h6v1h-6zM326 605h10v1h-10zM342 605h5v1h-5zM381 605h5v1h-5zM388 605h5v1h-5zM427 605h5v1h-5zM441 605h6v1h-6zM474 605h5v1h-5zM491 605h6v1h-6zM524 605h6v1h-6zM219 606h5v1h-5zM234 606h5v1h-5zM268 606h5v1h-5zM316 606h5v1h-5zM326 606h5v1h-5zM332 606h5v1h-5zM342 606h5v1h-5zM381 606h5v1h-5zM389 606h5v1h-5zM427 606h5v1h-5zM441 606h6v1h-6zM474 606h5v1h-5zM492 606h5v1h-5zM524 606h6v1h-6zM219 607h5v1h-5zM234 607h5v1h-5zM268 607h16v1h-16zM316 607h5v1h-5zM325 607h5v1h-5zM332 607h5v1h-5zM342 607h5v1h-5zM381 607h5v1h-5zM389 607h5v1h-5zM427 607h5v1h-5zM441 607h6v1h-6zM474 607h5v1h-5zM492 607h5v1h-5zM525 607h10v1h-10zM90 608h98v1h-98zM219 608h5v1h-5zM234 608h5v1h-5zM268 608h16v1h-16zM316 608h6v1h-6zM325 608h5v1h-5zM332 608h5v1h-5zM341 608h5v1h-5zM380 608h5v1h-5zM390 608h5v1h-5zM427 608h5v1h-5zM441 608h5v1h-5zM474 608h5v1h-5zM492 608h6v1h-6zM526 608h13v1h-13zM575 608h98v1h-98zM90 609h99v1h-99zM219 609h5v1h-5zM233 609h6v1h-6zM268 609h16v1h-16zM316 609h6v1h-6zM325 609h5v1h-5zM333 609h5v1h-5zM341 609h5v1h-5zM380 609h5v1h-5zM390 609h5v1h-5zM427 609h5v1h-5zM440 609h6v1h-6zM474 609h5v1h-5zM493 609h5v1h-5zM527 609h13v1h-13zM574 609h99v1h-99zM90 610h98v1h-98zM219 610h19v1h-19zM268 610h16v1h-16zM317 610h5v1h-5zM325 610h5v1h-5zM333 610h5v1h-5zM341 610h5v1h-5zM379 610h5v1h-5zM390 610h5v1h-5zM427 610h19v1h-19zM474 610h5v1h-5zM492 610h6v1h-6zM529 610h12v1h-12zM575 610h98v1h-98zM219 611h19v1h-19zM268 611h15v1h-15zM317 611h5v1h-5zM324 611h5v1h-5zM333 611h5v1h-5zM340 611h6v1h-6zM379 611h5v1h-5zM391 611h5v1h-5zM427 611h18v1h-18zM474 611h5v1h-5zM492 611h5v1h-5zM531 611h11v1h-11zM219 612h18v1h-18zM268 612h5v1h-5zM318 612h5v1h-5zM324 612h5v1h-5zM334 612h4v1h-4zM340 612h5v1h-5zM379 612h17v1h-17zM427 612h17v1h-17zM474 612h5v1h-5zM492 612h5v1h-5zM536 612h6v1h-6zM219 613h16v1h-16zM268 613h5v1h-5zM318 613h5v1h-5zM324 613h5v1h-5zM334 613h10v1h-10zM378 613h19v1h-19zM427 613h15v1h-15zM474 613h5v1h-5zM492 613h5v1h-5zM537 613h5v1h-5zM219 614h17v1h-17zM268 614h5v1h-5zM318 614h10v1h-10zM334 614h10v1h-10zM378 614h19v1h-19zM427 614h15v1h-15zM474 614h5v1h-5zM491 614h5v1h-5zM538 614h4v1h-4zM219 615h5v1h-5zM231 615h5v1h-5zM268 615h5v1h-5zM319 615h9v1h-9zM334 615h10v1h-10zM377 615h21v1h-21zM427 615h5v1h-5zM438 615h5v1h-5zM474 615h5v1h-5zM490 615h6v1h-6zM525 615h1v1h-1zM538 615h4v1h-4zM219 616h5v1h-5zM231 616h6v1h-6zM268 616h5v1h-5zM319 616h8v1h-8zM335 616h9v1h-9zM377 616h5v1h-5zM393 616h5v1h-5zM427 616h5v1h-5zM438 616h6v1h-6zM474 616h5v1h-5zM488 616h7v1h-7zM524 616h4v1h-4zM537 616h5v1h-5zM219 617h5v1h-5zM232 617h6v1h-6zM268 617h18v1h-18zM319 617h8v1h-8zM335 617h9v1h-9zM376 617h5v1h-5zM393 617h5v1h-5zM427 617h5v1h-5zM439 617h6v1h-6zM474 617h20v1h-20zM524 617h7v1h-7zM535 617h7v1h-7zM219 618h5v1h-5zM233 618h5v1h-5zM268 618h18v1h-18zM319 618h8v1h-8zM336 618h7v1h-7zM376 618h5v1h-5zM394 618h5v1h-5zM427 618h5v1h-5zM439 618h6v1h-6zM474 618h19v1h-19zM524 618h17v1h-17zM219 619h5v1h-5zM234 619h5v1h-5zM268 619h18v1h-18zM320 619h7v1h-7zM336 619h7v1h-7zM375 619h6v1h-6zM394 619h5v1h-5zM427 619h5v1h-5zM440 619h6v1h-6zM474 619h18v1h-18zM525 619h15v1h-15zM219 620h5v1h-5zM234 620h6v1h-6zM268 620h18v1h-18zM320 620h6v1h-6zM336 620h6v1h-6zM375 620h5v1h-5zM395 620h5v1h-5zM427 620h5v1h-5zM441 620h5v1h-5zM474 620h16v1h-16zM526 620h13v1h-13zM530 621h6v1h-6z"></path></svg>