<svg xmlns="http://www.w3.org/2000/svg" viewBox="0 0 600 500">
  <path fill="#FFFFFF" fill-rule="evenodd" d="M49.00,422.67L37.83,422.50L37.83,371.67L37.83,320.83L79.33,320.83L120.83,320.83L123.33,321.62C131.77,324.27 139.22,330.52 141.09,336.50C141.20,336.87 141.61,338.07 142.00,339.17C145.26,348.40 143.49,361.18 138.02,367.92C136.05,370.35 136.03,370.46 137.28,371.51C139.49,373.36 142.23,377.66 143.31,380.95C145.13,386.50 145.15,386.65 145.16,392.33C145.18,408.38 136.05,420.03 121.67,422.32C118.97,422.75 70.17,422.98 49.00,422.67ZM261.33,422.79C260.88,422.73 259.22,422.51 257.67,422.32C243.52,420.53 234.36,407.26 237.69,393.38C239.76,384.76 244.97,379.49 254.17,376.69C259.10,375.19 259.06,375.19 286.17,375.01L312.17,374.83L312.15,370.67C312.12,364.15 310.37,361.57 304.50,359.44C302.96,358.88 301.34,358.83 283.17,358.84L263.50,358.84L261.62,359.73C258.12,361.40 256.34,363.57 255.86,366.75C255.56,368.77 255.89,368.71 246.50,368.59L238.83,368.50L238.92,365.33C239.02,361.42 240.12,357.71 242.06,354.73C242.58,353.94 243.00,353.17 243.00,353.02C243.00,352.36 248.33,347.37 250.17,346.31C253.23,344.54 256.36,343.32 259.88,342.53C263.87,341.64 303.70,341.74 307.85,342.66C320.19,345.38 327.56,353.11 329.45,365.33C330.10,369.54 330.20,421.28 329.56,422.12C329.23,422.55 327.88,422.66 321.48,422.82C312.40,423.04 312.64,423.11 312.60,420.07C312.57,417.61 312.31,417.51 310.19,419.13C308.21,420.64 304.84,421.87 301.00,422.49C298.09,422.96 264.32,423.21 261.33,422.79ZM194.23,422.18C185.64,420.30 180.00,414.97 176.56,405.50L175.83,403.50L175.83,362.17L175.83,320.83L184.33,320.83L192.83,320.83L193.00,360.50L193.17,400.17L194.20,402.00C195.07,403.53 195.58,404.01 197.31,404.92L199.39,406.00L206.65,406.00C212.49,406.00 213.99,406.09 214.31,406.47C214.78,407.04 214.77,421.19 214.29,422.08C213.89,422.83 197.55,422.90 194.23,422.18ZM301.83,406.21C308.15,404.97 312.01,400.58 312.12,394.50L312.17,391.51L310.50,391.32C306.54,390.86 261.88,391.21 260.33,391.71C251.82,394.44 252.27,404.27 261.00,406.20C263.79,406.82 298.68,406.83 301.83,406.21ZM119.38,405.33C125.15,403.50 128.22,398.74 127.94,392.05C127.65,385.14 124.10,380.89 117.44,379.49C114.88,378.95 56.17,378.81 55.31,379.35C55.10,379.48 54.85,400.26 54.99,405.58C55.01,406.41 116.74,406.16 119.38,405.33ZM118.71,361.42C121.28,360.59 124.61,357.23 125.42,354.64C127.40,348.31 125.13,341.69 120.12,339.15L118.17,338.17L86.59,338.08L55.02,337.99L54.93,349.66C54.87,356.08 54.88,361.49 54.94,361.67C55.17,362.34 116.62,362.10 118.71,361.42Z"/>
  <path fill="#9EF107" fill-rule="evenodd" d="M168.94,465.92C168.50,465.32 167.63,464.01 167.01,463.00C165.49,460.52 165.19,460.33 162.84,460.33C159.86,460.33 159.42,460.76 159.42,463.61C159.42,464.88 159.32,466.08 159.19,466.29C158.82,466.89 156.11,466.77 155.87,466.14C155.46,465.07 155.64,445.82 156.07,445.40C156.85,444.62 166.28,444.87 168.54,445.74C174.30,447.95 175.36,455.15 170.48,458.87C169.39,459.70 169.37,459.77 169.85,460.62C170.43,461.66 172.51,464.59 173.24,465.40C174.15,466.42 173.54,467.00 171.55,467.00C169.90,467.00 169.68,466.91 168.94,465.92ZM199.80,466.15C199.51,464.98 199.79,445.93 200.11,445.42C200.48,444.83 215.02,444.82 215.60,445.40C216.12,445.92 216.11,447.39 215.58,448.10C215.23,448.57 214.36,448.67 209.67,448.75L204.17,448.83L204.07,451.42L203.97,454.00L207.90,454.04C214.22,454.12 213.77,454.03 214.01,455.18C214.47,457.39 214.27,457.49 209.37,457.37C203.98,457.25 204.00,457.24 204.00,460.54L204.00,463.00L209.58,463.01C216.00,463.01 216.08,463.04 215.94,465.03L215.83,466.50L213.33,466.71C211.96,466.82 208.40,466.93 205.42,466.96L200.01,467.00L199.80,466.15ZM248.02,466.52C247.52,465.92 242.00,449.08 242.00,448.16C242.00,447.79 241.76,447.14 241.47,446.73C240.63,445.53 241.08,445.00 242.95,445.00C245.25,445.00 245.29,445.09 248.86,456.67C250.33,461.42 250.51,461.51 251.55,458.00C251.95,456.62 252.61,454.68 253.00,453.67C253.40,452.66 254.28,450.33 254.95,448.50L256.18,445.17L257.98,445.17C260.01,445.17 259.76,444.81 261.51,450.33C263.17,455.57 264.91,460.37 265.27,460.74C265.70,461.17 265.71,461.16 266.65,458.00C267.00,456.81 267.65,454.78 268.10,453.50C268.54,452.22 269.24,450.12 269.64,448.83C270.75,445.30 271.06,444.95 272.94,445.07C274.89,445.19 274.89,445.87 273.00,450.67C272.60,451.68 272.15,452.95 271.99,453.50C270.98,456.97 267.53,466.54 267.21,466.74C267.00,466.88 266.05,466.99 265.09,466.99C263.01,467.00 263.31,467.53 260.47,458.92C259.42,455.75 258.38,452.96 258.15,452.71C257.62,452.14 257.00,452.50 257.00,453.37C257.00,453.74 256.83,454.37 256.61,454.76C256.40,455.16 256.12,455.94 255.98,456.49C255.84,457.05 255.40,458.32 255.01,459.33C254.62,460.34 254.07,461.77 253.79,462.50C253.50,463.23 253.19,464.23 253.10,464.72C252.72,466.75 249.23,467.98 248.02,466.52ZM298.22,466.60C297.84,466.36 298.03,465.83 299.54,462.95C299.79,462.46 300.00,461.91 300.00,461.72C300.00,461.52 300.77,459.75 301.70,457.77C304.73,451.37 305.58,449.53 306.35,447.67C307.41,445.12 307.55,445.00 309.32,445.00C310.81,445.00 312.00,445.66 312.00,446.49C312.00,446.65 312.36,447.53 312.80,448.47C314.79,452.73 315.72,454.81 317.50,459.00C318.55,461.47 319.72,464.15 320.09,464.94C320.92,466.71 320.63,467.08 318.52,466.94C316.82,466.82 316.83,466.83 315.38,463.58L314.68,462.00L309.56,462.00C303.74,462.00 304.01,461.89 302.41,465.03C301.52,466.80 301.47,466.83 300.05,466.83C299.26,466.83 298.43,466.73 298.22,466.60ZM346.41,466.72C346.08,466.51 346.01,464.10 346.08,455.81L346.17,445.17L352.00,445.17C357.77,445.17 357.85,445.18 359.74,446.13C364.70,448.64 365.47,454.83 361.28,458.44C359.46,460.01 359.45,459.95 362.06,463.40C364.53,466.65 364.54,467.00 362.22,467.00C360.17,467.00 360.06,466.91 357.34,462.92L355.58,460.33L353.19,460.33C350.17,460.33 350.00,460.51 350.00,463.67C350.00,465.19 349.84,466.36 349.60,466.60C349.15,467.05 347.06,467.13 346.41,466.72ZM390.63,466.58C389.96,465.91 390.09,445.70 390.76,445.27C391.68,444.68 401.81,444.97 403.73,445.63C409.14,447.49 411.12,450.22 411.15,455.83C411.17,461.11 409.13,464.22 404.48,465.99C401.85,467.00 391.48,467.43 390.63,466.58ZM439.12,466.22C438.17,465.82 437.05,465.26 436.62,464.96L435.85,464.43L436.51,463.05C437.26,461.49 437.53,461.41 439.27,462.30C443.50,464.46 449.33,463.70 449.33,460.99C449.33,459.85 447.66,458.44 445.98,458.18C439.33,457.15 436.26,454.52 436.83,450.33C437.43,446.01 444.18,443.59 449.95,445.62C452.26,446.43 452.42,446.63 451.96,448.02C451.33,449.91 450.84,450.25 449.72,449.58C448.75,449.01 444.24,448.30 443.33,448.58C441.32,449.18 440.38,450.55 440.96,452.05C441.33,453.04 442.28,453.47 445.61,454.15C451.10,455.26 453.12,456.97 453.12,460.48C453.12,463.68 451.86,465.31 448.52,466.44C446.10,467.27 441.35,467.15 439.12,466.22ZM404.01,462.33C408.65,459.96 408.28,451.85 403.44,449.64C401.73,448.86 394.68,448.68 394.65,449.42C394.63,449.83 394.64,462.27 394.66,462.75C394.68,463.37 402.67,463.01 404.01,462.33ZM312.61,457.88C312.77,457.03 309.94,450.34 309.41,450.34C309.00,450.33 308.63,451.03 307.49,454.00C307.18,454.82 306.68,455.98 306.40,456.56C305.53,458.31 306.16,458.71 309.63,458.60C312.11,458.51 312.51,458.42 312.61,457.88ZM37.89,456.78C37.52,456.40 37.64,455.41 38.08,455.24C38.87,454.94 126.82,455.35 127.12,455.66C127.29,455.82 127.33,456.19 127.22,456.48C127.01,457.02 38.43,457.32 37.89,456.78ZM167.32,456.51C170.26,454.99 170.37,451.35 167.54,449.49C166.45,448.78 160.58,448.38 159.87,448.97C159.39,449.37 159.38,455.93 159.86,456.71C160.17,457.22 166.26,457.06 167.32,456.51ZM358.39,455.90C360.43,454.35 360.64,452.02 358.90,450.13L357.77,448.90L354.47,448.86C349.78,448.82 350.00,448.62 350.00,452.93C350.00,454.93 350.10,456.66 350.22,456.78C350.34,456.90 351.91,457.00 353.70,457.00C356.86,457.00 356.99,456.97 358.39,455.90ZM482.00,456.17C482.00,455.14 475.40,455.27 527.63,455.28C572.79,455.29 573.34,455.30 572.89,456.48C572.71,456.95 568.21,457.00 527.34,457.00L482.00,457.00L482.00,456.17ZM443.73,421.12C442.69,420.05 439.73,416.78 437.16,413.86C434.60,410.94 430.78,406.65 428.67,404.33C426.56,402.01 422.00,396.94 418.53,393.06C415.06,389.18 412.11,386.00 411.97,386.00C411.83,386.00 410.33,387.54 408.64,389.42C406.95,391.30 404.64,393.81 403.52,395.00C402.39,396.19 399.76,399.12 397.66,401.50C395.57,403.88 392.13,407.75 390.01,410.09C387.90,412.44 385.14,415.51 383.87,416.93C382.61,418.34 380.92,420.21 380.12,421.08L378.66,422.67L366.16,422.67C356.39,422.67 353.67,422.58 353.67,422.25C353.67,422.02 354.54,420.93 355.60,419.83C356.66,418.73 358.71,416.48 360.16,414.83C361.60,413.18 364.61,409.88 366.84,407.50C370.45,403.64 371.71,402.25 374.95,398.50C375.42,397.95 377.82,395.34 380.27,392.69C382.72,390.05 385.79,386.68 387.09,385.19C388.38,383.71 391.48,380.27 393.97,377.55C396.46,374.83 398.61,372.40 398.75,372.16C399.04,371.66 396.67,368.76 391.17,362.84C389.29,360.82 386.82,358.04 385.68,356.67C384.54,355.29 382.90,353.42 382.04,352.50C381.17,351.58 379.59,349.86 378.51,348.67C377.44,347.47 375.95,345.82 375.21,345.00C374.47,344.18 372.19,341.70 370.16,339.50C368.12,337.30 365.32,334.19 363.94,332.59C362.55,330.99 359.67,327.82 357.54,325.55C355.41,323.28 353.67,321.25 353.67,321.04C353.67,320.77 357.07,320.67 366.12,320.67L378.58,320.67L380.01,322.25C380.80,323.12 382.36,324.81 383.49,326.00C384.62,327.19 386.42,329.14 387.49,330.33C388.56,331.53 389.98,333.10 390.64,333.83C391.30,334.57 392.88,336.37 394.14,337.83C395.40,339.30 397.81,342.00 399.50,343.83C401.19,345.67 404.05,348.89 405.85,351.00C407.66,353.11 409.81,355.51 410.62,356.33L412.10,357.83L414.25,355.50C415.43,354.22 417.54,351.82 418.94,350.17C420.34,348.52 421.64,347.00 421.83,346.80C422.01,346.60 423.67,344.73 425.50,342.65C427.33,340.57 430.19,337.36 431.84,335.51C433.50,333.67 435.88,330.97 437.14,329.50C438.40,328.03 440.73,325.47 442.32,323.81L445.22,320.78L457.68,320.56C465.04,320.43 470.26,320.46 470.44,320.64C470.70,320.90 468.82,323.11 462.88,329.50C462.54,329.87 460.67,331.96 458.72,334.15C456.76,336.34 453.67,339.78 451.83,341.79C450.00,343.80 447.91,346.13 447.18,346.97C446.45,347.81 444.88,349.55 443.68,350.84C442.48,352.12 440.39,354.45 439.04,356.00C437.68,357.56 435.57,359.88 434.35,361.17C432.56,363.04 428.77,367.37 425.42,371.38C424.81,372.11 427.64,375.44 443.00,392.18C445.70,395.12 452.70,402.88 453.67,404.00C454.06,404.46 455.32,405.81 456.46,407.00C457.61,408.19 460.41,411.25 462.69,413.79C464.97,416.33 467.54,419.18 468.40,420.12C470.87,422.82 471.46,422.67 458.36,422.67C451.96,422.67 446.48,422.76 446.18,422.87C445.81,423.02 445.05,422.48 443.73,421.12ZM476.42,422.42C476.31,422.11 482.90,414.57 484.65,413.00C484.76,412.91 486.33,411.18 488.15,409.17C489.96,407.15 493.72,403.10 496.50,400.17C506.15,389.98 511.67,383.85 511.67,383.32C511.67,383.02 510.13,381.14 508.25,379.14C506.37,377.13 503.42,373.92 501.69,372.00C499.96,370.07 496.05,365.88 493.00,362.67C489.95,359.46 486.65,355.93 485.67,354.83C484.69,353.73 482.11,350.98 479.94,348.71C477.77,346.44 476.00,344.38 476.00,344.13C476.00,343.56 499.28,343.43 500.32,343.99C500.65,344.17 502.40,346.01 504.19,348.08C505.99,350.14 508.62,353.03 510.03,354.50C511.44,355.97 514.77,359.64 517.43,362.67C520.08,365.69 522.72,368.61 523.29,369.14L524.33,370.12L525.20,369.31C525.69,368.86 528.12,366.25 530.61,363.50C533.10,360.75 536.58,357.00 538.34,355.17C542.32,351.04 545.77,347.31 547.44,345.33L548.71,343.83L560.40,343.73C567.96,343.67 572.22,343.75 572.44,343.97C572.78,344.31 570.67,346.75 563.33,354.49C561.41,356.52 558.88,359.23 557.71,360.51C556.55,361.79 553.01,365.53 549.85,368.83C541.58,377.49 536.67,382.92 536.67,383.42C536.67,383.66 539.25,386.56 542.42,389.87C545.58,393.18 550.42,398.32 553.17,401.29C555.92,404.26 559.74,408.39 561.67,410.47C563.59,412.55 566.74,415.93 568.67,417.98C570.59,420.03 572.21,421.90 572.27,422.15C572.40,422.73 565.00,423.06 555.69,422.89L548.87,422.76L546.85,420.58C545.74,419.38 543.10,416.55 540.98,414.29C538.86,412.02 535.42,408.29 533.34,406.00C527.67,399.75 524.64,396.67 524.18,396.67C523.95,396.67 522.50,398.05 520.97,399.74C517.29,403.78 514.00,407.33 511.48,410.00C510.35,411.19 507.66,414.12 505.49,416.50C503.32,418.88 501.10,421.25 500.55,421.75L499.55,422.67L492.19,422.75C478.45,422.90 476.59,422.86 476.42,422.42ZM197.82,280.58C197.73,280.35 197.70,223.02 197.75,153.17L197.83,26.17L274.50,26.17C337.07,26.17 351.56,26.25 353.33,26.61C358.36,27.64 361.30,28.36 363.17,29.01C364.27,29.39 365.47,29.78 365.83,29.88C366.54,30.07 368.25,30.80 369.72,31.55C370.20,31.80 370.76,32.00 370.96,32.00C371.45,32.00 376.59,35.06 379.83,37.27C398.24,49.86 409.03,71.46 409.00,95.67C409.00,98.69 408.84,102.12 408.65,103.28C408.46,104.44 408.17,106.52 407.99,107.92C407.81,109.31 407.53,110.91 407.35,111.47C407.18,112.04 406.71,113.70 406.32,115.17C405.06,119.82 404.07,122.51 402.11,126.61C400.83,129.26 399.40,131.87 397.74,134.56C395.99,137.39 392.89,141.45 390.02,144.67C388.24,146.66 388.15,146.44 392.42,150.08C396.23,153.32 397.25,154.34 400.85,158.50C405.81,164.22 409.24,169.73 412.59,177.33C412.87,177.97 413.28,178.88 413.49,179.33C414.39,181.24 416.57,188.77 417.31,192.50C419.31,202.56 419.33,215.00 417.36,222.61C417.19,223.28 416.79,224.88 416.47,226.17C410.24,251.68 391.19,271.28 365.67,278.43C363.11,279.14 359.43,279.89 355.43,280.49C350.81,281.18 198.08,281.28 197.82,280.58ZM352.03,244.18C355.41,243.66 356.18,243.44 360.00,241.88C368.82,238.29 375.93,230.71 378.83,221.83C384.07,205.80 379.38,187.53 367.80,178.82C365.28,176.92 359.85,174.00 358.84,174.00C358.54,174.00 357.99,173.84 357.63,173.65C354.81,172.14 351.67,172.00 320.19,172.00L290.22,172.00L285.09,166.75C282.27,163.86 277.91,159.40 275.40,156.83C272.90,154.27 266.29,147.56 260.72,141.94C255.16,136.31 250.70,131.55 250.81,131.36C250.96,131.13 265.63,131.02 295.77,131.01C320.46,131.00 341.34,130.86 342.34,130.69C363.93,127.16 376.17,105.46 368.95,83.54C365.70,73.68 359.93,68.07 349.33,64.47C347.27,63.77 236.37,63.28 235.54,63.96C235.27,64.19 235.17,74.27 235.17,101.63L235.17,138.98L245.50,149.17C262.91,166.33 267.67,171.14 267.67,171.58C267.67,171.91 264.32,172.00 251.69,172.00C242.90,172.00 235.63,172.12 235.55,172.26C235.42,172.46 235.19,242.57 235.30,244.25C235.35,244.92 347.69,244.85 352.03,244.18Z"/>
</svg>
