<svg xmlns="http://www.w3.org/2000/svg" viewBox="0 0 910 300">
<rect width="910" height="300" fill="#000000"/>
<path d="M 718,235 L 718,236 L 855,236 L 855,234 L 719,234 Z" fill="#66FF00" fill-rule="evenodd"/>
<path d="M 41,234 L 41,236 L 178,236 L 178,234 Z" fill="#66FF00" fill-rule="evenodd"/>
<path d="M 579,219 L 579,251 L 597,251 L 598,250 L 601,250 L 602,249 L 603,249 L 605,247 L 606,247 L 607,246 L 607,245 L 609,243 L 609,242 L 610,241 L 610,238 L 611,237 L 611,232 L 610,231 L 610,229 L 609,228 L 609,227 L 608,226 L 608,225 L 605,222 L 604,222 L 602,220 L 600,220 L 599,219 Z M 586,224 L 597,224 L 598,225 L 599,225 L 600,226 L 601,226 L 602,227 L 602,228 L 604,230 L 604,232 L 605,233 L 605,237 L 604,238 L 604,240 L 599,245 L 597,245 L 596,246 L 585,246 L 584,245 L 584,227 L 585,226 L 585,225 Z" fill="#66FF00" fill-rule="evenodd"/>
<path d="M 511,219 L 511,251 L 517,251 L 517,242 L 518,241 L 526,241 L 528,243 L 528,244 L 530,246 L 530,247 L 533,250 L 533,251 L 540,251 L 537,248 L 537,247 L 535,245 L 535,244 L 533,242 L 533,240 L 534,239 L 535,239 L 537,237 L 537,236 L 538,235 L 538,234 L 539,233 L 539,228 L 538,227 L 538,225 L 537,224 L 537,223 L 535,221 L 534,221 L 533,220 L 532,220 L 531,219 Z M 517,225 L 518,224 L 530,224 L 533,227 L 533,233 L 530,236 L 528,236 L 527,237 L 519,237 L 517,235 Z" fill="#66FF00" fill-rule="evenodd"/>
<path d="M 453,219 L 453,220 L 452,221 L 452,222 L 451,223 L 451,225 L 450,226 L 450,227 L 449,228 L 449,229 L 448,230 L 448,231 L 447,232 L 447,234 L 446,235 L 446,236 L 445,237 L 445,238 L 444,239 L 444,240 L 443,241 L 443,242 L 442,243 L 442,245 L 441,246 L 441,247 L 440,248 L 440,249 L 439,250 L 439,251 L 445,251 L 445,250 L 446,249 L 446,247 L 447,246 L 447,245 L 449,243 L 458,243 L 459,244 L 464,244 L 466,246 L 466,248 L 467,249 L 467,250 L 468,251 L 474,251 L 473,250 L 473,249 L 472,248 L 472,246 L 471,245 L 471,244 L 470,243 L 470,241 L 469,240 L 469,239 L 468,238 L 468,237 L 467,236 L 467,235 L 466,234 L 466,233 L 465,232 L 465,230 L 464,229 L 464,228 L 463,227 L 463,226 L 462,225 L 462,224 L 461,223 L 461,221 L 460,220 L 460,219 Z M 456,225 L 457,226 L 457,227 L 458,228 L 458,229 L 459,230 L 459,231 L 460,232 L 460,234 L 461,235 L 461,236 L 462,237 L 462,238 L 461,239 L 452,239 L 451,238 L 451,236 L 452,235 L 452,234 L 453,233 L 453,231 L 454,230 L 454,229 L 455,228 L 455,226 Z" fill="#66FF00" fill-rule="evenodd"/>
<path d="M 353,219 L 353,221 L 354,222 L 354,224 L 355,225 L 355,227 L 356,228 L 356,230 L 357,231 L 357,233 L 358,234 L 358,236 L 359,237 L 359,240 L 360,241 L 360,243 L 361,244 L 361,246 L 362,247 L 362,249 L 363,250 L 363,251 L 370,251 L 370,249 L 371,248 L 371,246 L 372,245 L 372,243 L 373,242 L 373,240 L 374,239 L 374,237 L 375,236 L 375,234 L 376,233 L 376,231 L 378,229 L 380,231 L 380,233 L 381,234 L 381,237 L 382,238 L 382,240 L 383,241 L 383,243 L 384,244 L 384,246 L 385,247 L 385,249 L 386,250 L 386,251 L 392,251 L 393,250 L 393,248 L 395,245 L 395,243 L 396,242 L 396,240 L 397,239 L 397,237 L 398,236 L 398,234 L 399,233 L 399,231 L 400,230 L 400,228 L 401,227 L 401,225 L 402,224 L 402,221 L 403,220 L 403,219 L 398,219 L 397,220 L 397,222 L 396,223 L 396,225 L 395,226 L 395,228 L 394,229 L 394,231 L 393,232 L 393,234 L 392,235 L 392,237 L 389,242 L 388,241 L 388,239 L 387,238 L 387,236 L 386,235 L 386,233 L 385,232 L 385,230 L 384,229 L 384,227 L 383,226 L 383,224 L 382,223 L 382,221 L 381,220 L 381,219 L 375,219 L 375,220 L 374,221 L 374,223 L 373,224 L 373,226 L 372,227 L 372,229 L 371,230 L 371,233 L 369,236 L 369,238 L 368,239 L 368,241 L 367,242 L 365,240 L 365,238 L 364,237 L 364,234 L 363,233 L 363,231 L 362,230 L 362,228 L 361,227 L 361,225 L 360,224 L 360,221 L 359,220 L 359,219 Z" fill="#66FF00" fill-rule="evenodd"/>
<path d="M 290,219 L 290,251 L 314,251 L 315,250 L 315,247 L 314,246 L 297,246 L 296,245 L 296,238 L 297,237 L 311,237 L 312,236 L 312,233 L 311,232 L 297,232 L 296,231 L 296,226 L 295,225 L 297,223 L 298,224 L 313,224 L 314,223 L 314,219 Z" fill="#66FF00" fill-rule="evenodd"/>
<path d="M 222,219 L 222,251 L 228,251 L 228,242 L 229,241 L 236,241 L 239,244 L 239,245 L 242,248 L 242,249 L 244,251 L 250,251 L 250,250 L 247,247 L 247,246 L 245,244 L 245,243 L 243,241 L 248,236 L 248,235 L 249,234 L 249,225 L 244,220 L 242,220 L 241,219 Z M 228,225 L 229,224 L 233,224 L 234,223 L 235,224 L 240,224 L 243,227 L 243,228 L 244,229 L 244,232 L 240,236 L 238,236 L 237,237 L 229,237 L 228,236 Z" fill="#66FF00" fill-rule="evenodd"/>
<path d="M 665,218 L 659,218 L 658,219 L 655,219 L 654,220 L 653,220 L 649,224 L 649,231 L 650,232 L 650,233 L 651,234 L 652,234 L 654,236 L 657,236 L 658,237 L 661,237 L 662,238 L 664,238 L 665,239 L 666,239 L 668,241 L 668,244 L 666,246 L 664,246 L 663,247 L 658,247 L 657,246 L 655,246 L 654,245 L 653,245 L 652,244 L 651,244 L 650,243 L 649,244 L 649,246 L 648,247 L 648,248 L 649,249 L 650,249 L 651,250 L 653,250 L 654,251 L 659,251 L 660,252 L 661,252 L 662,251 L 667,251 L 668,250 L 669,250 L 670,249 L 671,249 L 673,247 L 673,246 L 674,245 L 674,239 L 673,238 L 673,237 L 671,235 L 670,235 L 669,234 L 667,234 L 666,233 L 663,233 L 662,232 L 659,232 L 658,231 L 657,231 L 655,229 L 655,226 L 657,224 L 658,224 L 659,223 L 665,223 L 666,224 L 669,224 L 670,225 L 671,225 L 671,224 L 672,223 L 672,222 L 673,221 L 672,221 L 671,220 L 670,220 L 669,219 L 666,219 Z" fill="#66FF00" fill-rule="evenodd"/>
<path d="M 708,64 L 763,124 L 709,184 L 745,184 L 782,144 L 819,184 L 855,184 L 800,124 L 855,64 L 819,64 L 782,104 L 745,64 Z" fill="#66FF00" fill-rule="evenodd"/>
<path d="M 355,77 L 349,90 L 348,102 L 374,102 L 376,94 L 380,90 L 387,87 L 446,87 L 453,90 L 459,96 L 461,102 L 460,112 L 381,112 L 369,115 L 358,121 L 349,132 L 346,142 L 346,154 L 348,162 L 358,176 L 366,181 L 376,184 L 446,184 L 460,177 L 461,184 L 487,184 L 487,98 L 481,81 L 471,70 L 460,64 L 446,61 L 387,61 L 373,64 L 362,70 Z M 372,150 L 372,146 L 373,145 L 373,143 L 377,139 L 378,139 L 381,137 L 384,137 L 385,136 L 460,136 L 461,137 L 461,143 L 460,144 L 460,147 L 459,148 L 459,149 L 457,151 L 457,152 L 453,156 L 452,156 L 450,158 L 448,158 L 447,159 L 445,159 L 444,160 L 383,160 L 382,159 L 380,159 L 379,158 L 378,158 L 373,153 L 373,151 Z" fill="#FFFFFF" fill-rule="evenodd"/>
<path d="M 522,29 L 591,106 L 522,184 L 561,184 L 611,128 L 661,184 L 700,184 L 630,107 L 700,29 L 661,29 L 611,85 L 560,29 Z" fill="#66FF00" fill-rule="evenodd"/>
<path d="M 252,29 L 252,151 L 253,152 L 253,157 L 254,158 L 255,163 L 259,170 L 267,178 L 272,181 L 274,181 L 281,184 L 311,184 L 312,183 L 312,159 L 289,159 L 288,158 L 286,158 L 280,153 L 279,148 L 278,147 L 278,29 Z" fill="#FFFFFF" fill-rule="evenodd"/>
<path d="M 40,30 L 40,46 L 41,47 L 40,48 L 40,65 L 41,66 L 40,180 L 41,184 L 169,184 L 184,179 L 196,169 L 202,159 L 205,150 L 206,135 L 203,120 L 198,111 L 192,104 L 197,98 L 202,86 L 203,66 L 200,55 L 196,47 L 189,39 L 177,32 L 166,29 L 41,29 Z M 67,119 L 68,118 L 164,118 L 165,119 L 167,119 L 168,120 L 171,121 L 176,126 L 176,127 L 178,129 L 178,131 L 179,132 L 179,145 L 178,146 L 178,148 L 176,150 L 176,151 L 171,156 L 170,156 L 167,158 L 164,158 L 163,159 L 68,159 L 67,158 Z M 67,56 L 68,55 L 162,55 L 163,56 L 166,56 L 167,57 L 168,57 L 170,59 L 171,59 L 174,63 L 174,64 L 176,67 L 176,79 L 175,80 L 175,82 L 172,86 L 172,87 L 170,89 L 169,89 L 164,92 L 68,92 L 67,91 Z" fill="#FFFFFF" fill-rule="evenodd"/>
</svg>